<svg version="1.1" xmlns="http://www.w3.org/2000/svg" xmlns:xlink="http://www.w3.org/1999/xlink" width="29.7004" height="28.33566" viewBox="0,0,29.7004,28.33566"><defs><radialGradient cx="238.8902" cy="193.8657" r="54.7327" gradientUnits="userSpaceOnUse" id="color-1"><stop offset="0" stop-color="#995900"/><stop offset="1" stop-color="#663b00"/></radialGradient><radialGradient cx="240.45883" cy="194.42251" r="11.10818" gradientUnits="userSpaceOnUse" id="color-2"><stop offset="0" stop-color="#995900"/><stop offset="1" stop-color="#663b00"/></radialGradient><radialGradient cx="234.72962" cy="186.22794" r="5.63956" gradientUnits="userSpaceOnUse" id="color-3"><stop offset="0" stop-color="#006622"/><stop offset="1" stop-color="#009933"/></radialGradient><radialGradient cx="243.15216" cy="168.98901" r="11.95689" gradientUnits="userSpaceOnUse" id="color-4"><stop offset="0" stop-color="#006622"/><stop offset="1" stop-color="#009933"/></radialGradient><radialGradient cx="246.18722" cy="184.34772" r="7.89537" gradientUnits="userSpaceOnUse" id="color-5"><stop offset="0" stop-color="#006622"/><stop offset="1" stop-color="#009933"/></radialGradient><radialGradient cx="234.22648" cy="183.02853" r="7.97683" gradientUnits="userSpaceOnUse" id="color-6"><stop offset="0" stop-color="#006622"/><stop offset="1" stop-color="#009933"/></radialGradient><radialGradient cx="239.18533" cy="185.05806" r="7.89537" gradientUnits="userSpaceOnUse" id="color-7"><stop offset="0" stop-color="#006622"/><stop offset="1" stop-color="#009933"/></radialGradient><radialGradient cx="238.57648" cy="179.37537" r="7.89537" gradientUnits="userSpaceOnUse" id="color-8"><stop offset="0" stop-color="#006622"/><stop offset="1" stop-color="#009933"/></radialGradient><radialGradient cx="245.47689" cy="181.4049" r="7.89537" gradientUnits="userSpaceOnUse" id="color-9"><stop offset="0" stop-color="#006622"/><stop offset="1" stop-color="#009933"/></radialGradient><radialGradient cx="232.78823" cy="178.96958" r="7.89929" gradientUnits="userSpaceOnUse" id="color-10"><stop offset="0" stop-color="#006622"/><stop offset="1" stop-color="#009933"/></radialGradient><radialGradient cx="232.88358" cy="173.01151" r="11.04175" gradientUnits="userSpaceOnUse" id="color-11"><stop offset="0" stop-color="#006622"/><stop offset="1" stop-color="#009933"/></radialGradient><radialGradient cx="245.27665" cy="174.12968" r="9.97801" gradientUnits="userSpaceOnUse" id="color-12"><stop offset="0" stop-color="#006622"/><stop offset="1" stop-color="#009933"/></radialGradient><radialGradient cx="248.54282" cy="177.84301" r="8.61668" gradientUnits="userSpaceOnUse" id="color-13"><stop offset="0" stop-color="#006622"/><stop offset="1" stop-color="#009933"/></radialGradient><radialGradient cx="238.8721" cy="175.10314" r="8.61668" gradientUnits="userSpaceOnUse" id="color-14"><stop offset="0" stop-color="#006622"/><stop offset="1" stop-color="#009933"/></radialGradient><radialGradient cx="244.1655" cy="187.06675" r="4.56746" gradientUnits="userSpaceOnUse" id="color-15"><stop offset="0" stop-color="#006622"/><stop offset="1" stop-color="#009933"/></radialGradient><radialGradient cx="233.95695" cy="169.35559" r="4.97572" gradientUnits="userSpaceOnUse" id="color-16"><stop offset="0" stop-color="#006622"/><stop offset="1" stop-color="#009933"/></radialGradient></defs><g transform="translate(-225.1498,-166.12258)"><g data-paper-data="{&quot;isPaintingLayer&quot;:true}" fill-rule="nonzero" stroke-linejoin="miter" stroke-miterlimit="10" stroke-dasharray="" stroke-dashoffset="0" style="mix-blend-mode: normal"><path d="" fill="url(#color-1)" stroke="#995900" stroke-width="1.16275" stroke-linecap="butt"/><path d="M237.49214,180.50038h5.75608v13.16948c-1.17266,0.06954 -2.349,0.19331 -3.53239,0.20064c-0.74121,0.00459 -1.48247,0.00838 -2.22369,0.00637z" fill="url(#color-2)" stroke="#995900" stroke-width="1.16275" stroke-linecap="butt"/><path d="M234.24174,185.11964c1.25035,-0.09344 2.74452,0.19494 3.68926,0.5098c0.94475,0.31496 1.52954,0.74987 1.52954,1.2298c0,0.47992 -0.77889,1.11109 -1.52954,1.2298c-0.67135,0.10478 -1.28571,-0.54481 -1.94965,-0.48279c-0.33473,0.02752 -0.19818,0.50294 -0.50738,0.65489c-0.31342,0.20324 -0.78675,0.34671 -1.23223,0.33769c-0.92313,-0.01883 -1.777,-0.05772 -2.39195,-0.40932c-0.81616,-0.39407 -1.52446,-1.03823 -1.59462,-1.66797c-0.02334,-0.28754 0.7202,-0.28795 1.08724,-0.43489c0.92837,-0.36881 1.80383,-0.88557 2.89933,-0.96701z" fill="url(#color-3)" stroke="none" stroke-width="0.61823" stroke-linecap="round"/><path d="M240.14147,166.12587c0.87106,-0.07493 0.67484,1.15383 1.62789,1.24589c1.37509,0.13026 2.87688,-1.14888 3.99568,-0.74224c1.83445,0.66926 2.22427,2.31896 3.46263,3.26621c0.97556,0.73692 3.12286,1.29502 3.12286,2.12384c0,0.82884 -1.59028,1.91886 -3.12286,2.12387c-1.37067,0.18095 -2.62502,-0.94087 -3.98058,-0.83377c-0.68342,0.04753 -0.40461,0.86858 -1.03593,1.13102c-0.63989,0.35097 -1.60625,0.59873 -2.51579,0.58319c-1.88479,-0.03251 -3.48247,-0.16224 -4.88362,-0.70689c-1.15284,-0.448 -1.84217,-1.18458 -1.99785,-1.93512c-0.30871,-1.48588 -0.75267,-3.16635 0.29599,-4.50643c0.95926,-1.01793 3.20453,-1.59227 5.0316,-1.74956z" fill="url(#color-4)" stroke="none" stroke-width="1.20104" stroke-linecap="round"/><path d="M245.5042,182.79607c1.75047,-0.1308 3.84231,0.27291 5.16496,0.71373c1.32265,0.44096 2.14136,1.04982 2.14136,1.72171c0,0.6719 -1.09047,1.55554 -2.14136,1.72171c-0.93988,0.14669 -1.79999,-0.76272 -2.72952,-0.6759c-0.46862,0.03852 -0.27744,0.70413 -0.71034,0.91686c-0.43878,0.28452 -1.10143,0.48536 -1.7251,0.47276c-1.29241,-0.02636 -2.4878,-0.0808 -3.34873,-0.57304c-1.14263,-0.55171 -2.13426,-1.45353 -2.23249,-2.33516c-0.03268,-0.40256 1.00827,-0.40315 1.52215,-0.60886c1.29971,-0.51631 2.52535,-1.23978 4.05907,-1.35382z" fill="url(#color-5)" stroke="none" stroke-width="0.86553" stroke-linecap="round"/><path d="M233.63144,181.47687c1.75047,-0.1308 3.84231,0.27291 5.16496,0.71373c1.32265,0.44096 2.14136,1.04982 2.14136,1.72171c0,0.6719 -1.09047,1.55554 -2.14136,1.72171c-0.93988,0.14669 -1.79999,-0.76272 -2.72952,-0.6759c-0.46862,0.03852 -0.27744,0.70413 -0.71034,0.91686c-0.43878,0.28452 -1.10143,0.48536 -1.7251,0.47276c-1.29241,-0.02636 -2.30372,-0.24626 -3.34873,-0.57304c-0.90152,-0.28596 -2.22843,-0.37621 -2.3847,-0.96701c-0.1786,-0.79755 0.89157,-1.55152 1.67436,-1.97701c1.1891,-0.63679 2.52535,-1.23978 4.05907,-1.35382z" fill="url(#color-6)" stroke="none" stroke-width="0.86553" stroke-linecap="round"/><path d="M238.50232,183.5064c1.75047,-0.1308 3.84231,0.27291 5.16496,0.71373c1.32265,0.44096 2.14136,1.04982 2.14136,1.72171c0,0.6719 -1.09047,1.55554 -2.14136,1.72171c-0.93988,0.14669 -1.79999,-0.76272 -2.72952,-0.6759c-0.46862,0.03852 -0.27744,0.70413 -0.71034,0.91686c-0.43878,0.28452 -1.10143,0.48536 -1.7251,0.47276c-1.29241,-0.02636 -2.4878,-0.0808 -3.34873,-0.57304c-1.14263,-0.55171 -2.13426,-1.45353 -2.23249,-2.33516c-0.03268,-0.40256 1.00827,-0.40315 1.52215,-0.60886c1.29971,-0.51631 2.52535,-1.23978 4.05907,-1.35382z" fill="url(#color-7)" stroke="none" stroke-width="0.86553" stroke-linecap="round"/><path d="M237.89346,177.82371c1.75047,-0.1308 3.84231,0.27291 5.16496,0.71373c1.32265,0.44096 2.14136,1.04982 2.14136,1.72171c0,0.6719 -1.09047,1.55554 -2.14136,1.72171c-0.93988,0.14669 -1.79999,-0.76272 -2.72952,-0.6759c-0.46862,0.03852 -0.27744,0.70413 -0.71034,0.91686c-0.43878,0.28452 -1.10143,0.48536 -1.7251,0.47276c-1.29241,-0.02636 -2.4878,-0.0808 -3.34873,-0.57304c-1.14263,-0.55171 -2.13426,-1.45353 -2.23249,-2.33516c-0.03268,-0.40256 1.00827,-0.40315 1.52215,-0.60886c1.29971,-0.51631 2.52535,-1.23978 4.05907,-1.35382z" fill="url(#color-8)" stroke="none" stroke-width="0.86553" stroke-linecap="round"/><path d="M244.79387,179.85324c1.75047,-0.1308 3.84231,0.27291 5.16496,0.71373c1.32265,0.44096 2.14136,1.04982 2.14136,1.72171c0,0.6719 -1.09047,1.55554 -2.14136,1.72171c-0.93988,0.14669 -1.79999,-0.76272 -2.72952,-0.6759c-0.46862,0.03852 -0.27744,0.70413 -0.71034,0.91686c-0.43878,0.28452 -1.10143,0.48536 -1.7251,0.47276c-1.29241,-0.02636 -2.4878,-0.0808 -3.34873,-0.57304c-1.14263,-0.55171 -2.13426,-1.45353 -2.23249,-2.33516c-0.03268,-0.40256 1.00827,-0.40315 1.52215,-0.60886c1.29971,-0.51631 2.52535,-1.23978 4.05907,-1.35382z" fill="url(#color-9)" stroke="none" stroke-width="0.86553" stroke-linecap="round"/><path d="M232.10929,177.4178c1.75047,-0.1308 3.84231,0.27291 5.16496,0.71373c1.32265,0.44096 2.14136,1.04982 2.14136,1.72171c0,0.6719 -1.09047,1.55554 -2.14136,1.72171c-0.93988,0.14669 -1.79999,-0.76272 -2.72952,-0.6759c-0.46862,0.03852 -0.27744,0.70413 -0.71034,0.91686c-0.43878,0.28452 -1.11218,0.45285 -1.7251,0.47276c-0.56644,0.01348 -1.10995,-0.12191 -1.57289,-0.32233c-0.68395,-0.29497 -1.07707,-0.89596 -1.62363,-1.318c-0.79497,-0.44339 -2.17972,-0.62449 -2.3847,-1.26787c-0.11873,-0.36789 1.00827,-0.40315 1.52215,-0.60886c1.29971,-0.51631 2.52535,-1.23978 4.05907,-1.35382z" fill="url(#color-10)" stroke="none" stroke-width="0.86553" stroke-linecap="round"/><path d="M230.83158,171.20802c0.249,-0.02078 0.33871,-0.14195 0.65599,-0.21734c1.19284,-0.28389 2.60253,-1.2287 3.61464,-0.79381c1.65951,0.71576 2.01214,2.48007 3.1324,3.49311c0.88252,0.78813 2.82505,1.38499 2.82505,2.27141c0,0.8864 -1.43863,2.05216 -2.82505,2.27141c-1.23994,0.19354 -2.37467,-1.00624 -3.60096,-0.89172c-0.61824,0.05084 -0.36603,0.92894 -0.93714,1.2096c-0.57888,0.37536 -1.45308,0.64034 -2.27588,0.6237c-1.70503,-0.03477 -3.15036,-0.17348 -4.41789,-0.756c-1.0429,-0.47911 -2.08551,-1.28577 -1.80732,-2.06955c0.43803,-1.21526 2.62609,-1.67946 3.21301,-2.80664c0.3079,-0.58893 -1.51253,-1.22454 -1.01747,-1.71991c0.64127,-0.64127 2.2791,-0.34871 3.44061,-0.61426z" fill="url(#color-11)" stroke="none" stroke-width="1.14186" stroke-linecap="round"/><path d="M244.41345,172.16872c2.21221,-0.16531 4.85584,0.3449 6.52736,0.90201c1.67154,0.55727 2.70622,1.32673 2.70622,2.17586c0,0.84912 -1.37811,1.96585 -2.70622,2.17586c-1.18778,0.1854 -2.27478,-0.96391 -3.44952,-0.85419c-0.59222,0.04869 -0.3506,0.88985 -0.8977,1.15872c-0.55453,0.35955 -1.39195,0.61339 -2.18014,0.59745c-1.63333,-0.0333 -3.14403,-0.10211 -4.23206,-0.7242c-1.44403,-0.69723 -2.69723,-1.83693 -2.82135,-2.95112c-0.0413,-0.50874 1.27422,-0.50947 1.92365,-0.76946c1.64254,-0.65251 3.19148,-1.56682 5.12977,-1.71094z" fill="url(#color-12)" stroke="none" stroke-width="1.09383" stroke-linecap="round"/><path d="M246.47838,175.52198c0.59729,-0.06074 0.46273,0.93535 1.11624,1.01c0.94292,0.10558 1.97271,-0.93133 2.73987,-0.6017c1.2579,0.54253 1.52519,1.87987 2.37435,2.64775c0.66893,0.59739 2.14136,1.04982 2.14136,1.72171c0,0.6719 -1.09047,1.55554 -2.14136,1.72171c-0.93988,0.14669 -1.79999,-0.76272 -2.72952,-0.6759c-0.46862,0.03852 -0.27744,0.70413 -0.71034,0.91686c-0.43878,0.28452 -1.10143,0.48536 -1.7251,0.47276c-1.29241,-0.02636 -2.38795,-0.13151 -3.34873,-0.57304c-0.7905,-0.36316 -1.26318,-0.96027 -1.36993,-1.56871c-0.21168,-1.20455 -0.51611,-2.56681 0.20295,-3.65316c0.65777,-0.82519 2.19737,-1.29078 3.45021,-1.4183z" fill="url(#color-13)" stroke="none" stroke-width="0.86553" stroke-linecap="round"/><path d="M236.80766,172.78211c0.59729,-0.06074 0.46273,0.93535 1.11624,1.01c0.94292,0.10558 1.97271,-0.93133 2.73987,-0.6017c1.2579,0.54253 1.52519,1.87987 2.37435,2.64775c0.66893,0.59739 2.14136,1.04982 2.14136,1.72171c0,0.6719 -1.09047,1.55554 -2.14136,1.72171c-0.93988,0.14669 -1.79999,-0.76272 -2.72952,-0.6759c-0.46862,0.03852 -0.27744,0.70413 -0.71034,0.91686c-0.43878,0.28452 -1.10143,0.48536 -1.7251,0.47276c-1.29241,-0.02636 -2.38795,-0.13151 -3.34873,-0.57304c-0.7905,-0.36316 -1.26318,-0.96027 -1.36993,-1.56871c-0.21168,-1.20455 -0.51611,-2.56681 0.20295,-3.65316c0.65777,-0.82519 2.19737,-1.29078 3.45021,-1.4183z" fill="url(#color-14)" stroke="none" stroke-width="0.86553" stroke-linecap="round"/><path d="M244.22704,186.33366c0.75921,-0.02155 1.39053,0.12009 1.93532,0.29708c2.91715,1.1215 2.16013,1.56229 1.75394,1.85812c-0.35068,0.1691 -1.28049,-0.3929 -1.94965,-0.35042c-0.33865,0.01946 -0.16498,0.50326 -0.50738,0.47534c-0.71758,-0.06618 -1.04434,-0.73179 -1.83382,-0.80213c-0.72803,-0.06052 -1.32326,0.52102 -2.02953,0.44191c-0.70687,-0.11319 -1.37805,-0.51648 -1.35544,-0.90239c0.01928,-0.3109 0.92806,-0.37291 1.45692,-0.57188c0.8134,-0.14365 1.63986,-0.41942 2.52965,-0.44562z" fill="url(#color-15)" stroke="none" stroke-width="0.56751" stroke-linecap="round"/><path d="M234.01849,168.34555c0.75921,-0.02969 1.39053,0.16545 1.93532,0.40932c2.91715,1.54516 2.16013,2.15248 1.75394,2.56007c-0.35068,0.23299 -1.28049,-0.54132 -1.94965,-0.48279c-0.33865,0.02681 -0.16498,0.69337 -0.50738,0.65489c-0.71758,-0.09117 -1.04434,-1.00825 -1.83382,-1.10514c-0.72803,-0.08341 -1.32326,0.71783 -2.02953,0.60886c-0.70687,-0.15595 -1.37805,-0.71159 -1.35544,-1.24331c0.01928,-0.42835 0.92806,-0.5138 1.45692,-0.78793c0.8134,-0.19792 1.63986,-0.57787 2.52965,-0.61397z" fill="url(#color-16)" stroke="none" stroke-width="0.61823" stroke-linecap="round"/></g></g></svg>