<svg version="1.1" xmlns="http://www.w3.org/2000/svg" xmlns:xlink="http://www.w3.org/1999/xlink" width="227.70651" height="70.98216" viewBox="0,0,227.70651,70.98216"><g transform="translate(-157.03641,-128.61024)"><g data-paper-data="{&quot;isPaintingLayer&quot;:true}" fill="#a5210e" fill-rule="nonzero" stroke="none" stroke-width="0.5" stroke-linecap="butt" stroke-linejoin="miter" stroke-miterlimit="10" stroke-dasharray="" stroke-dashoffset="0" style="mix-blend-mode: normal"><path d="M169.13817,194.88053c-1.15237,-1.10371 -3.3654,-2.03737 -3.13628,-3.6165c0.15531,-1.07043 2.71402,-3.69769 4.9716,-5.85682c-2.2972,0.25524 -4.5944,0.51049 -6.8916,0.76573l-7.04548,-1.58118c2.25269,-1.33462 4.36404,-2.94347 6.75808,-4.00385c3.04776,-1.34992 6.48945,-1.52693 9.73417,-2.29039c2.24433,-0.52808 4.48865,-1.05615 6.73298,-1.58423c2.57387,-2.41301 5.14775,-4.82601 7.72162,-7.23902l-6.8906,-1.63332c1.8273,-1.78101 3.48947,-3.7489 5.48189,-5.34304c3.71289,-2.97069 8.86082,-5.12995 12.98139,-7.51554c2.46617,-1.42778 4.93363,-2.9774 7.41877,-4.52677c1.21811,-0.90997 2.42987,-1.83051 3.73017,-2.60354l0.01838,-0.06167c0.09837,-0.04026 0.19674,-0.08051 0.29512,-0.12077c0.17655,-0.10048 0.35484,-0.19808 0.53508,-0.29241c2.10143,-1.97009 4.20286,-3.94018 6.30429,-5.91028c3.57967,-3.35595 7.07082,-7.24932 10.94306,-10.25912c1.24426,-0.96714 2.49995,-3.01202 3.99815,-2.52322c2.20976,0.72096 3.1146,3.45792 4.5264,5.30444c0.10855,0.14197 0.21664,0.28441 0.32427,0.42729l0.75397,-0.12273c-0.12481,0.21162 -0.24754,0.42462 -0.36879,0.6386c0.7996,1.08035 1.57349,2.18515 2.32268,3.30979l0.47951,0.03676c-0.09725,0.08217 -0.19406,0.16493 -0.29048,0.24821c0.06291,0.09524 0.12564,0.19062 0.1882,0.28614l5.38145,-1.5538c-0.45921,2.84393 -1.01133,5.2993 -1.69968,7.66519c1.471,2.64774 2.82808,5.35036 4.08246,8.05636c-2.47264,1.1116 -4.99324,2.1102 -7.54711,3.02779c3.74625,-0.5827 7.50542,-1.11393 11.22333,-1.31306c11.58886,-0.6207 23.57854,0.5787 35.18504,0.86735l2.20071,0.71912c2.72911,-0.10611 5.47316,-0.18529 8.24435,-0.26599c11.66172,-0.33959 23.32345,-0.67918 34.98517,-1.01878c1.31704,-0.03835 10.48791,-0.38938 11.21597,-0.01326c0.29869,0.1543 0.56647,0.34541 0.81062,0.56453c5.67196,-0.45431 11.35055,-0.77204 17.03861,-0.84718l5.12354,2.14344c-2.24119,1.31996 -4.34891,2.89864 -6.72357,3.95987c-3.09714,1.38411 -6.58527,2.09308 -10.08654,2.7485c1.97948,2.95247 3.89641,5.95477 5.86404,8.90621c0.9245,1.38675 1.90871,2.7355 2.7735,4.16025c0.64177,1.05733 0.78353,2.49358 1.74069,3.27695c0.43225,0.35376 1.02932,-0.46302 1.57945,-0.55966c1.64153,-0.28836 3.31005,-0.39332 4.96507,-0.58997c3.31005,-0.39332 6.60448,-1.40593 9.93014,-1.17995c2.61274,0.17754 5.14729,0.968 7.72093,1.45201l-6.73766,4.04044c-12.8089,3.08062 -25.6178,6.16124 -38.42669,9.24186c6.34633,0.44011 12.69266,0.88021 19.03899,1.32032c3.32535,0.23061 6.75573,-0.16884 9.97604,0.69182c2.53839,0.67841 4.87533,1.96109 7.313,2.94164l-7.52796,2.33729c-0.75623,-0.0092 -1.51246,-0.01839 -2.26869,-0.02759c-0.22453,0.00339 -0.44962,0.00032 -0.67519,-0.00821c-17.38299,-0.21141 -34.76598,-0.42281 -52.14897,-0.63422c-1.0996,0.26719 -2.20936,0.46111 -3.3398,0.50578c-2.52853,0.0999 -5.04356,-0.40194 -7.56454,-0.63839c-7.99872,-0.09728 -15.99744,-0.19455 -23.99615,-0.29183c-4.72258,-0.05743 -9.44516,-0.11487 -14.16775,-0.1723c1.60497,0.30364 3.20994,0.60729 4.81492,0.91093c-2.97223,-0.112 -5.07758,-0.1588 -5.35396,-0.06831c-0.04237,0.01387 -0.08445,0.02817 -0.12624,0.04289c-0.01741,-0.00036 -0.03483,-0.00072 -0.05224,-0.00107l0,-0.04341h-8c-0.48396,0 -0.95989,0.03438 -1.42548,0.10083c-1.90585,-0.88384 -3.57948,-1.0512 -3.57948,-1.0512c-10.0516,-1.00433 -20.12746,-1.75571 -30.20168,-2.49974c-7.62209,-0.56293 -16.42628,-1.5171 -24.01519,-0.47496c-7.21468,0.99074 -14.23297,3.30891 -21.48706,3.95023c-0.06953,0.00615 -0.13908,0.0118 -0.20866,0.01699c-2.30996,-1.79423 -5.12346,-4.02101 -5.44428,-4.32828zM172.25731,190.3578c-0.45427,0.18676 -0.89599,0.3909 -1.2592,0.71149c-0.31708,0.27987 0.90073,-0.30566 1.26546,-0.09157c1.43733,0.84372 2.61741,2.06449 3.90281,3.12539c0.20461,0.16887 0.39893,0.35486 0.5885,0.54859l5.05952,-3.89815c-2.77329,-0.05644 -5.54497,-0.08739 -8.31439,-0.08689c0,0 -0.62014,0 -1.24269,-0.30886zM182.93,197.257c-1.71269,-0.33823 -3.37646,-0.89275 -5.04622,-1.42077c0.43514,0.42227 0.9027,0.78826 1.46632,0.9903c1.14768,0.4114 2.35233,0.48654 3.57991,0.43047zM242.62122,150.21855c-0.12721,0.33295 -0.25767,0.6685 -0.39149,1.00743c0.5202,-0.02044 1.0478,-0.01927 1.58469,0.00701c-0.40243,-0.31578 -0.80038,-0.65496 -1.1932,-1.01444zM231.78293,135.37128l0.89097,-0.14503c-0.11773,-0.54161 -0.23082,-1.0852 -0.47286,-1.57754c-0.17749,-0.36104 0.26774,0.89021 0.01948,1.20679c-0.13944,0.17781 -0.28577,0.34931 -0.43759,0.51578zM311.51242,171.68639c-0.70041,0.03925 -1.40081,0.07849 -2.10122,0.11773c-0.06622,0.03121 -0.13253,0.06224 -0.19892,0.09312l1.51812,0.09777c0.26121,-0.10466 0.52189,-0.20764 0.78202,-0.30862zM345.07134,165.06602c-0.10218,-0.14983 -0.20415,-0.29979 -0.30574,-0.45c-0.37282,0.08377 -0.74345,0.17075 -1.11142,0.26174c0.18809,-0.01052 0.37617,-0.02103 0.56426,-0.03155zM193.17319,164.45901c0.05447,-0.00117 0.10894,-0.00233 0.16341,-0.0035c0.0883,-0.08278 0.1766,-0.16556 0.2649,-0.24835c-0.06488,0.03756 -0.12977,0.07513 -0.19465,0.11269c-0.07833,0.04535 -0.15619,0.09179 -0.23366,0.13915zM339.36597,170.12548c-0.03629,0.00203 -0.07258,0.00406 -0.10888,0.00609l0.07017,0.0202c0.01289,-0.00878 0.02579,-0.01755 0.0387,-0.0263zM190.86232,192.30735c0.01639,0.00151 0.03277,0.00302 0.04916,0.00452l-0.02109,-0.01621c-0.00936,0.0039 -0.01871,0.0078 -0.02807,0.01169z"/></g></g></svg>