<svg version="1.1" xmlns="http://www.w3.org/2000/svg" xmlns:xlink="http://www.w3.org/1999/xlink" width="26.8" height="25.8" viewBox="0,0,26.8,25.8"><defs><linearGradient x1="240" y1="167.125" x2="240" y2="192.875" gradientUnits="userSpaceOnUse" id="color-1"><stop offset="0" stop-color="#e1ecff"/><stop offset="1" stop-color="#669aff"/></linearGradient></defs><g transform="translate(-226.6,-167.1)"><g data-paper-data="{&quot;isPaintingLayer&quot;:true}" fill-rule="nonzero" stroke-linecap="butt" stroke-linejoin="miter" stroke-miterlimit="10" stroke-dasharray="" stroke-dashoffset="0" style="mix-blend-mode: normal"><path d="M226.625,192.875v-25.75h26.75v25.75z" fill="url(#color-1)" stroke="#000000" stroke-width="0.05"/><path d="M251.67257,172.0171c-0.12127,0.48507 -0.60634,0.3638 -0.60634,0.3638l-0.27976,-0.11996c-2.26583,2.04577 -5.33334,1.45501 -8.03788,2.13115c-1.07857,0.00381 -3.13163,0.17943 -4.12743,-0.28431c-3.08175,-1.43518 -5.19921,-3.67673 -8.51804,-1.30507c0,0 -0.40687,0.29062 -0.69749,-0.11625c-0.29062,-0.40687 0.11625,-0.69749 0.11625,-0.69749c3.52858,-2.51931 6.22499,-0.64895 9.48196,1.19493c0.68515,0.38788 2.79511,0.21238 3.62257,0.21569c2.87008,-0.71752 5.3383,-0.37402 7.96212,-2.11885l0.72024,0.13004c0,0 0.48507,0.12127 0.3638,0.60634z" fill="#005eff" stroke="none" stroke-width="0.5"/><path d="M252.81818,175.82167c0.32417,0.38068 -0.05651,0.70484 -0.05651,0.70484l-0.45613,0.36932c-4.09157,2.01864 -6.98654,4.09612 -11.88312,3.10523c-4.85555,-1.21892 -7.26511,-4.96072 -11.90952,-0.97561c0,0 -0.37963,0.3254 -0.70502,-0.05423c-0.3254,-0.37963 0.05423,-0.70502 0.05423,-0.70502c5.02183,-4.3001 7.60877,-0.52767 12.78077,0.75947c4.62433,0.935 7.36972,-1.07912 11.21545,-3.02426l0.25501,-0.23625c0,0 0.38068,-0.32417 0.70484,0.05651z" fill="#005eff" stroke="none" stroke-width="0.5"/><path d="M251.5625,183.64583c0,0.5 -0.5,0.5 -0.5,0.5l-0.02145,-0.14645c-2.66937,2.52733 -7.4402,1.85031 -10.53925,0.61068c-1.80399,-0.72761 -3.63088,-2.13126 -5.61357,-2.34167c-2.14834,-0.22799 -4.7066,1.64894 -6.42338,2.79346c0,0 -0.41603,0.27735 -0.69338,-0.13868c-0.27735,-0.41603 0.13868,-0.69338 0.13868,-0.69338c1.92339,-1.28226 4.66926,-3.23333 7.07662,-2.95654c2.10887,0.24247 3.96561,1.64731 5.88643,2.40833c2.52977,1.01191 7.32252,1.95378 9.46075,-0.38932l0.72855,-0.14645c0,0 0.5,0 0.5,0.5z" fill="#005eff" stroke="none" stroke-width="0.5"/></g></g></svg>