<svg version="1.1" xmlns="http://www.w3.org/2000/svg" xmlns:xlink="http://www.w3.org/1999/xlink" width="270.91667" height="382.85714" viewBox="0,0,270.91667,382.85714"><g transform="translate(34.5,6.71428)"><g data-paper-data="{&quot;isPaintingLayer&quot;:true}" fill="#9966ff" fill-rule="nonzero" stroke="none" stroke-width="0" stroke-linecap="butt" stroke-linejoin="miter" stroke-miterlimit="10" stroke-dasharray="" stroke-dashoffset="0" style="mix-blend-mode: normal"><path d="M-6.5,248.14287v-254.85714h242.91667v254.85714z"/><path d="M110.5,376.14287c0,0 -125.3424,-10.7604 -125.36796,-12.163c-0.05608,-3.07858 -14.07021,-106.55331 3.91447,-108.99438c5.37719,-0.72985 29.08102,-3.17255 34.12411,10.95347c0.62305,1.7452 -11.46627,19.88329 -10.94528,21.7343c1.60078,5.6874 -0.20536,12.60064 0.15724,17.94364c0.7406,10.91297 5.46119,20.83759 12.57352,28.67111c19.43335,21.40392 57.12712,8.1894 66.75388,2.22043c17.25496,-10.69876 13.8675,-42.69277 12.12336,-53.53224c-0.50517,-3.13954 -16.9426,-29.86608 -44.17847,-30.43807c-21.6596,-0.45488 -37.11665,21.3383 -51.99437,23.73306c-9.00115,1.44885 -23.07328,-14.9802 -23.10412,-16.98052c-0.18316,-11.88074 125.27697,-39.3786 125.27697,-52.64781c0,-42.50467 0.66666,-85.35714 0.66666,-85.35714h125.91666v254.85714z"/><path d="M-34.5,370.00001v-134h41v134z"/><path d="M-12.5,369.00001v-16h142v16z"/></g></g></svg>