<svg version="1.1" xmlns="http://www.w3.org/2000/svg" xmlns:xlink="http://www.w3.org/1999/xlink" width="270.91667" height="382.85714" viewBox="0,0,270.91667,382.85714"><g transform="translate(-242.58333,6.71426)"><g data-paper-data="{&quot;isPaintingLayer&quot;:true}" fill="#9966ff" fill-rule="nonzero" stroke="none" stroke-width="0" stroke-linecap="butt" stroke-linejoin="miter" stroke-miterlimit="10" stroke-dasharray="" stroke-dashoffset="0" style="mix-blend-mode: normal"><path d="M242.58333,141.14288v-147.85714h242.91667v147.85714z" data-paper-data="{&quot;index&quot;:null}"/><path d="M242.58334,376.14288v-254.85714h125.91666v254.85714z" data-paper-data="{&quot;index&quot;:null}"/><path d="M472.5,370.00001v-239h41v239z" data-paper-data="{&quot;index&quot;:null}"/><path d="M349.5,369.00001v-16c0,0 -26.62067,-60.96064 -15.65331,-86.8574c2.60264,-6.1455 0.71358,-49.62493 23.51325,-52.98592c8.938,-1.31758 34.86809,30.82087 46.68036,34.18249c0.83052,0.23635 28.91634,-1.34116 29.57882,-1.42153c8.62374,-1.04621 18.68375,-8.02663 25.05353,-16.88473c4.26955,-5.93742 5.41256,-13.45274 8.82466,-17.85467c0.91915,-1.18578 0.56975,-10.06549 0.19662,-16.94256c-0.16445,-3.0309 -6.70832,-27.62515 -28.09869,-36.86582c-10.60223,-4.58018 -19.03222,-5.78696 -27.19367,-4.59357c-3.89267,0.5692 -8.87824,1.62494 -12.68264,3.01014c-3.53075,1.28557 -5.85922,4.61403 -9.96589,4.12735c-1.10784,-0.13129 -4.55084,2.91085 -4.96064,5.79429c-0.59437,4.18215 -3.11891,5.1341 -5.50084,8.79133c-2.54585,3.9089 -4.12167,10.91116 -7.10838,15.28476c-2.32023,3.39763 5.91519,35.68975 3.53506,38.75053c-8.46484,10.88557 -26.94966,-10.15501 -26.82675,-10.78254c0.33278,-1.69901 -17.85367,-70.62936 0.45115,-83.56772c36.71079,-25.94821 123.48609,-3.98765 123.81246,-3.94012c5.05463,0.7362 4.34952,115.80888 7.62802,119.79233c1.53504,1.86511 6.46735,95.99907 2.13255,105.68275c-0.74496,1.6642 -68.56765,2.08348 -69.9647,-2.39463c-0.51772,-1.6595 15.0981,-5.68402 28.7369,-10.28563c11.89561,-4.01348 22.04799,-8.78502 21.76801,-8.6924c-0.52244,0.17282 5.9134,-47.24336 5.3154,-47.53506c-1.77071,-0.86374 -2.04407,-5.01925 -4.05943,-8.47287c-2.59706,-4.45046 -6.98589,-8.61616 -9.63203,-12.32418c-1.58961,-2.22749 -0.94489,-5.71118 -2.75681,-5.78465c-10.64488,-0.43164 -23.20729,-7.32174 -32.21384,-8.13378c-6.95464,-0.62704 -17.3837,1.23711 -17.10921,1.23711c0.57321,0 -9.25991,3.51014 -11.79107,6.48387c-7.47339,8.78011 -19.27117,19.08002 -17.91586,29.20898c0.08318,0.62164 -2.14969,10.82021 -1.49263,12.93028c2.96167,9.51095 7.12604,26.10153 7.49707,28.69153c0.47129,3.28989 13.48749,9.21626 16.6376,11.24464c7.03591,4.53048 9.39902,7.24404 12.41496,7.61366c38.52174,4.721 83.14993,3.4937 83.14993,3.4937v16z" data-paper-data="{&quot;index&quot;:null}"/></g></g></svg>