<svg version="1.1" xmlns="http://www.w3.org/2000/svg" xmlns:xlink="http://www.w3.org/1999/xlink" width="510.5" height="391.5" viewBox="0,0,510.5,391.5"><g transform="translate(17,16)"><g data-paper-data="{&quot;isPaintingLayer&quot;:true}" fill-rule="nonzero" stroke-linejoin="miter" stroke-miterlimit="10" stroke-dasharray="" stroke-dashoffset="0" style="mix-blend-mode: normal"><path d="M-16.5,375v-391h510v391z" fill="#000000" stroke="none" stroke-width="NaN" stroke-linecap="butt"/><path d="M-16.5,375v-391h510v391z" fill="#000000" stroke="none" stroke-width="NaN" stroke-linecap="butt"/><path d="M-17,375.5v-391h510v391z" fill="#000000" stroke="none" stroke-width="0" stroke-linecap="butt"/><text transform="translate(88.87188,111.782) scale(1.2594,1.2594)" font-size="40" xml:space="preserve" fill="#ffffff" fill-rule="nonzero" stroke="none" stroke-width="1" stroke-linecap="butt" stroke-linejoin="miter" stroke-miterlimit="10" stroke-dasharray="" stroke-dashoffset="0" font-family="Pixel" font-weight="normal" text-anchor="start" style="mix-blend-mode: normal"><tspan x="0" dy="0">Game     ver</tspan></text><text transform="translate(88.97188,111.782) scale(1.2594,1.2594)" font-size="40" xml:space="preserve" fill="#ffffff" fill-rule="nonzero" stroke="none" stroke-width="1" stroke-linecap="butt" stroke-linejoin="miter" stroke-miterlimit="10" stroke-dasharray="" stroke-dashoffset="0" font-family="Pixel" font-weight="normal" text-anchor="start" style="mix-blend-mode: normal"><tspan x="0" dy="0">Game     ver</tspan></text><path d="M260.05866,76.54829v-4.38806" fill="none" stroke="none" stroke-width="0" stroke-linecap="round"/><path d="M260.05867,117.13784c0,0 21.2422,-15.48814 21.2422,-22.83785c0,-3.40812 -46.02207,4.87723 -41.53564,-1.26369c-5.81111,-5.26263 20.29343,-20.87607 20.29343,-20.87607" fill="none" stroke="none" stroke-width="0" stroke-linecap="round"/><path d="M260.05866,117.13784c0,0 -27.8893,-13.7045 -20.29343,-24.10154c-5.81111,-5.26263 20.29343,-20.87607 20.29343,-20.87607" fill="none" stroke="none" stroke-width="0" stroke-linecap="round"/><path d="M260.05866,117.13784c0,0 -27.8893,-13.7045 -20.29343,-24.10154c-5.81111,-5.26263 20.29343,-20.87607 20.29343,-20.87607" fill="none" stroke="none" stroke-width="0" stroke-linecap="round"/><path d="M281.30086,94.29999c0,7.34971 -21.2422,22.83785 -21.2422,22.83785" fill="none" stroke="none" stroke-width="0" stroke-linecap="round"/><path d="M260.05866,72.16023v44.97761" fill="none" stroke="none" stroke-width="0" stroke-linecap="round"/><path d="M260.05866,72.16023v44.97761" fill="none" stroke="none" stroke-width="0" stroke-linecap="round"/><path d="M238.81277,115.51015c0,0 -1.11111,-0.94677 -1.11111,-3.22222c0,-5.42057 0,-28.04954 0,-37c0,-2.27531 0.77778,-2.55555 0.77778,-2.55555c0,0 0.82227,-1.11111 2.55555,-1.11111c4.8751,0 28.38414,0 37.88889,0c2.47465,0 3,0.88888 3,0.88888c0,0 1,0.77152 1,2.55556c0,4.86955 0,27.76809 0,37.44444c0,2.67003 -0.88889,3 -0.88889,3c0,0 -0.54653,1.33334 -2.88889,1.33334c-9.20175,0 -32.39978,0 -37.55556,0c-1.98403,0 -2.77777,-1.33334 -2.77777,-1.33334z" fill="#fbff00" stroke="#c0c300" stroke-width="0" stroke-linecap="butt"/><path d="M283.75721,94.46015h-48.11111" fill="none" stroke="#d0d400" stroke-width="3" stroke-linecap="round"/><path d="M260.1461,116.73237v-45.22223" fill="none" stroke="#d0d400" stroke-width="3" stroke-linecap="round"/><path d="M243.09445,118.37132h30" fill="none" stroke="#000000" stroke-width="3" stroke-linecap="round"/><path d="M236.19445,83.97132v25.5" fill="none" stroke="#000000" stroke-width="3" stroke-linecap="round"/><path d="M284.39445,80.67132v26.4" fill="none" stroke="#000000" stroke-width="3" stroke-linecap="round"/><path d="M275.69445,70.17132h-25.6" fill="none" stroke="#000000" stroke-width="3" stroke-linecap="round"/><path d="M232.29445,89.67132l2.7,11.4" fill="none" stroke="#000000" stroke-width="3" stroke-linecap="round"/><text transform="translate(26.61392,156.97077) scale(0.69963,0.69963)" font-size="40" xml:space="preserve" fill="#ffffff" fill-rule="nonzero" stroke="none" stroke-width="1" stroke-linecap="butt" stroke-linejoin="miter" stroke-miterlimit="10" stroke-dasharray="" stroke-dashoffset="0" font-family="Pixel" font-weight="normal" text-anchor="start" style="mix-blend-mode: normal"><tspan x="0" dy="0">Final score:                Final level:</tspan></text><text transform="translate(55.82069,326.01875) scale(0.69502,0.69502)" font-size="40" xml:space="preserve" fill="#ffffff" fill-rule="nonzero" stroke="none" stroke-width="1" stroke-linecap="butt" stroke-linejoin="miter" stroke-miterlimit="10" stroke-dasharray="" stroke-dashoffset="0" font-family="Pixel" font-weight="normal" text-anchor="start" style="mix-blend-mode: normal"><tspan x="0" dy="0">Click the        to play again!</tspan></text><path d="M221.7,300.38475v18.98475c0,0.37668 -0.15067,0.75336 -0.45202,0.90404c-2.41076,2.10942 -5.42422,3.16413 -8.513,3.16413c-3.08879,0 -6.10224,-1.13004 -8.513,-3.16413c-1.95874,-1.6574 -4.36951,-2.63677 -6.93094,-2.63677c-2.33543,0 -4.59552,0.75336 -6.47892,2.26009v12.58117c0,0.75336 -0.60269,1.35605 -1.35605,1.35605c-0.75336,0 -1.35605,-0.60269 -1.35605,-1.35605v-32.09327c0,-0.60269 0.37668,-0.97937 0.75336,-1.20538c2.41076,-1.95874 5.27354,-3.01345 8.287,-3.01345c3.08879,0 6.17758,1.13004 8.58834,3.16413c1.95874,1.6574 4.36951,2.56143 6.93094,2.56143c2.56143,0 4.9722,-0.90404 6.93094,-2.56143c0.45202,-0.30135 0.97937,-0.37668 1.43139,-0.15067c0.45202,0.22601 0.67803,0.67803 0.67803,1.20538z" fill="#549a10" stroke="none" stroke-width="1" stroke-linecap="butt"/><text transform="translate(111.47865,224.32086) scale(0.82917,0.82917)" font-size="40" xml:space="preserve" fill="#ffffff" fill-rule="nonzero" stroke="none" stroke-width="1" stroke-linecap="butt" stroke-linejoin="miter" stroke-miterlimit="10" stroke-dasharray="" stroke-dashoffset="0" font-family="Pixel" font-weight="normal" text-anchor="start" style="mix-blend-mode: normal"><tspan x="0" dy="0">World Records:</tspan></text><text transform="translate(63.75,252.54634) scale(0.5,0.5)" font-size="40" xml:space="preserve" fill="#ffffff" fill-rule="nonzero" stroke="none" stroke-width="1" stroke-linecap="butt" stroke-linejoin="miter" stroke-miterlimit="10" stroke-dasharray="" stroke-dashoffset="0" font-family="Pixel" font-weight="normal" text-anchor="start" style="mix-blend-mode: normal"><tspan x="0" dy="0">Score:                                  Level:</tspan></text></g></g></svg>