<svg version="1.1" xmlns="http://www.w3.org/2000/svg" xmlns:xlink="http://www.w3.org/1999/xlink" width="486.532" height="364.09422" viewBox="0,0,486.532,364.09422"><g transform="translate(9.14285,-1.64566)"><g data-paper-data="{&quot;isPaintingLayer&quot;:true}" fill-rule="nonzero" stroke-linejoin="miter" stroke-miterlimit="10" stroke-dasharray="" stroke-dashoffset="0" style="mix-blend-mode: normal"><path d="M257.23945,361.59553v-53.91511h121.15025v53.91511z" fill="#ff0000" stroke="none" stroke-width="0" stroke-linecap="butt"/><path d="M-9.14285,363.94654v-71.17129h281.45009v71.17129z" fill="#00c517" stroke="none" stroke-width="0" stroke-linecap="butt"/><path d="M378.21523,365.73989v-73.00302h99.17392v73.00302z" fill="#00c517" stroke="none" stroke-width="0" stroke-linecap="butt"/><path d="M25.9101,294.75581v-20.68515h43.95594v20.68515z" fill="#00c517" stroke="none" stroke-width="0" stroke-linecap="butt"/><path d="M102.57854,231.43563l20.03874,30.38131" fill="none" stroke="none" stroke-width="0" stroke-linecap="round"/><path d="M113.56752,273.45234l-1.29282,-18.09951" fill="none" stroke="none" stroke-width="0" stroke-linecap="round"/><path d="M319.65148,135.99845v-26.41803h84.53768v26.41803z" fill="#00c517" stroke="none" stroke-width="0" stroke-linecap="butt"/><path d="M406.10336,77.29992c0,18.78498 -7.2445,34.01321 -16.18104,34.01321c-8.93654,0 -16.18104,-15.22823 -16.18104,-34.01321c0,-18.78498 7.2445,-34.01321 16.18104,-34.01321c8.93654,0 16.18104,15.22823 16.18104,34.01321z" fill="#006eff" stroke="#000000" stroke-width="0.5" stroke-linecap="butt"/><path d="M116.16553,243.40326v-35.66433h202.0979v35.66433z" fill="#00c517" stroke="none" stroke-width="0" stroke-linecap="butt"/><path d="M233.72574,168.11189v-23.11577h39.62704v23.11577z" fill="#00c517" stroke="none" stroke-width="0" stroke-linecap="butt"/><path d="M291.18494,156.88423v-0.66046h3.30226v0.66046z" fill="#00c517" stroke="none" stroke-width="0" stroke-linecap="butt"/><path d="M268.06917,167.45144v-11.88811h64.72417v11.88812z" fill="#00c517" stroke="none" stroke-width="0" stroke-linecap="butt"/><path d="M332.79334,161.50738v-27.73893h37.64569v27.73893z" fill="#00c517" stroke="none" stroke-width="0" stroke-linecap="butt"/><path d="M272.03188,146.31702h62.08236l-1.3209,8.58586l-66.04507,1.3209l-1.3209,-11.88811z" fill="#ff0000" stroke="#ff0000" stroke-width="0.5" stroke-linecap="round"/><path d="M259.4833,361.62393v-68.68687h143.97824v68.68687z" fill="#00c517" stroke="none" stroke-width="0" stroke-linecap="butt"/><path d="M317.60294,248.68686l-199.45609,-2.6418l-3.30225,-4.62315l203.4188,1.98135z" fill="none" stroke="#ff0000" stroke-width="2.5" stroke-linecap="round"/><path d="M117.48642,243.40326l200.11654,2.6418" fill="none" stroke="#ff0000" stroke-width="2.5" stroke-linecap="round"/><text transform="translate(7.12317,94.73989) scale(1.84345,1.84345)" font-size="40" xml:space="preserve" fill="#009fff" fill-rule="nonzero" stroke="none" stroke-width="1" stroke-linecap="butt" stroke-linejoin="miter" stroke-miterlimit="10" stroke-dasharray="" stroke-dashoffset="0" font-family="Pixel" font-weight="normal" text-anchor="start" style="mix-blend-mode: normal"><tspan x="0" dy="0">LEVEL 2</tspan></text></g></g></svg>