<svg version="1.1" xmlns="http://www.w3.org/2000/svg" xmlns:xlink="http://www.w3.org/1999/xlink" width="602.63353" height="340" viewBox="0,0,602.63353,340"><g transform="translate(69.51033,12)"><g data-paper-data="{&quot;isPaintingLayer&quot;:true}" fill-rule="nonzero" stroke-linejoin="miter" stroke-miterlimit="10" stroke-dasharray="" stroke-dashoffset="0" style="mix-blend-mode: normal"><path d="M0.57265,272.16051h-69.83298" fill="none" stroke="#000000" stroke-width="0.5" stroke-linecap="round"/><path d="M-1.87682,328v-125h535v125z" fill="#00c517" stroke="none" stroke-width="0" stroke-linecap="butt"/><path d="M34.12315,211v-36h61v36z" fill="#00c517" stroke="none" stroke-width="0" stroke-linecap="butt"/><path d="M93.12319,208v-58h63v58z" fill="#00c517" stroke="none" stroke-width="0" stroke-linecap="butt"/><path d="M152.12318,213v-59h111v59z" fill="#ff0000" stroke="none" stroke-width="0" stroke-linecap="butt"/><path d="M261.12316,226v-92h84v92z" fill="#00c517" stroke="none" stroke-width="0" stroke-linecap="butt"/><path d="M343.12321,208v-57h85v57z" fill="#ff0000" stroke="none" stroke-width="0" stroke-linecap="butt"/><path d="M423.12321,216v-91h110v91z" fill="#00c517" stroke="none" stroke-width="0" stroke-linecap="butt"/><path d="" fill="#00c517" stroke="none" stroke-width="0" stroke-linecap="butt"/><path d="M51.60182,56.12913c-6.86357,-1.13353 -14.15603,0.86819 -21,0c-2.94185,-0.37319 -6.03015,-2.50952 -9,-3c-0.29299,-0.04839 -0.58633,-0.0914 -0.87991,-0.12913c0,0 22.99802,0 36.91396,0c-1.69019,0.8211 -3.11435,2.10429 -4.10821,3.68532c-0.62806,-0.24133 -1.26494,-0.44704 -1.92584,-0.55619z" fill="#00c517" stroke="none" stroke-width="0" stroke-linecap="butt"/><path d="M68,53c-0.48631,0 -0.96452,0.03471 -1.43228,0.1018c-0.06742,-0.03468 -0.13529,-0.06862 -0.2036,-0.1018c1.04674,0 1.63587,0 1.63587,0z" fill="#00c517" stroke="none" stroke-width="0" stroke-linecap="butt"/><path d="M107.90747,53c-0.6902,0.85804 -1.26461,1.89563 -1.58893,3.14261c-1.30057,0.2256 -2.57046,0.70871 -3.83126,1.22844c-1.83204,-2.06771 -4.50745,-3.37105 -7.48728,-3.37105c-2.25121,0 -4.32868,0.74389 -6,1.99927c-1.67132,-1.25538 -3.74879,-1.99927 -6,-1.99927c-2.75626,0 -5.25208,1.11511 -7.06091,2.91879c-1.82781,-2.38265 -4.70406,-3.91879 -7.93909,-3.91879z" fill="#00c517" stroke="none" stroke-width="0" stroke-linecap="butt"/><path d="M-3.87681,53l18.07232,0c-2.68199,0.33389 -5.31129,1.06539 -7.79733,2.12913c-2.45824,-0.22702 -4.93099,-0.12913 -7.39818,-0.12913l-2.87681,2.17776z" fill="#00c517" stroke="none" stroke-width="0" stroke-linecap="butt"/><path d="" fill="#00c517" stroke="none" stroke-width="0" stroke-linecap="butt"/><path d="" fill="#ff0000" stroke="none" stroke-width="0" stroke-linecap="butt"/><path d="M53.12318,29.5c0,10.76955 -5.8203,19.5 -13,19.5c-7.1797,0 -13,-8.73045 -13,-19.5c0,-10.76955 5.8203,-19.5 13,-19.5c7.1797,0 13,8.73045 13,19.5z" fill="#006eff" stroke="none" stroke-width="0" stroke-linecap="butt"/><path d="M-5.87682,51h143v7.7793c-2.89592,-3.7793 -8.12318,-3.7793 -8.12318,-3.7793c-4.75622,0 -8.98862,0.21567 -13.60182,1.12913c-2.75373,0.54526 -6.18487,-0.46492 -9,0c-1.32839,0.21939 -2.62438,0.71159 -3.9109,1.24192c-1.83204,-2.06771 -4.50745,-3.37105 -7.48728,-3.37105c-2.25121,0 -4.32868,0.74389 -6,1.99927c-1.67132,-1.25538 -3.74879,-1.99927 -6,-1.99927c-2.75626,0 -5.25208,1.11511 -7.06091,2.91879c-1.82781,-2.38265 -4.70406,-3.91879 -7.93909,-3.91879c-0.48631,0 -0.96452,0.03471 -1.43228,0.1018c-1.3692,-0.70427 -2.92204,-1.1018 -4.56772,-1.1018c-3.56997,0 -6.70301,1.8707 -8.47234,4.68532c-0.62806,-0.24133 -1.26494,-0.44704 -1.92584,-0.55619c-6.86357,-1.13353 -14.15603,0.86819 -21,0c-2.94185,-0.37319 -6.03015,-2.50952 -9,-3c-5.16947,-0.85375 -10.44861,-0.0346 -15.20364,2c-2.45824,-0.22702 -4.93099,-0.12913 -7.39818,-0.12913l-4.87682,3.69177z" fill="#00c517" stroke="none" stroke-width="0" stroke-linecap="butt"/><path d="M163.12318,34v-11h126v11z" fill="#00c517" stroke="none" stroke-width="0" stroke-linecap="butt"/><path d="M144.76716,65.842l-8.05096,-14.04129l20.763,-29.64271l8.05096,14.04129z" fill="#ff0000" stroke="none" stroke-width="0" stroke-linecap="butt"/><path d="M470.12319,127v-13h32v13z" fill="#00c517" stroke="none" stroke-width="0" stroke-linecap="butt"/><path d="M438.1232,52v-7h19v7z" fill="#00c517" stroke="none" stroke-width="0" stroke-linecap="butt"/><path d="M372.1232,30v-8h26v8z" fill="#00c517" stroke="none" stroke-width="0" stroke-linecap="butt"/><path d="M317.12316,37v-8h26v8z" fill="#00c517" stroke="none" stroke-width="0" stroke-linecap="butt"/><path d="M-7.87683,53v-65h32v65l-3.40126,0c-2.17813,-0.27988 -4.36931,-0.26854 -6.5264,0z" fill="#ff0000" stroke="none" stroke-width="0" stroke-linecap="butt"/><text transform="translate(158.12317,123.73989) scale(1.84345,1.84345)" font-size="40" xml:space="preserve" fill="#009fff" fill-rule="nonzero" stroke="none" stroke-width="1" stroke-linecap="butt" stroke-linejoin="miter" stroke-miterlimit="10" stroke-dasharray="" stroke-dashoffset="0" font-family="Pixel" font-weight="normal" text-anchor="start" style="mix-blend-mode: normal"><tspan x="0" dy="0">LEVEL 7</tspan></text></g></g></svg>