<svg version="1.1" xmlns="http://www.w3.org/2000/svg" xmlns:xlink="http://www.w3.org/1999/xlink" width="19.8579" height="18.60071" viewBox="0,0,19.8579,18.60071"><g transform="translate(-201.93829,-167.91576)"><g data-paper-data="{&quot;isPaintingLayer&quot;:true}" fill-rule="nonzero" stroke-linecap="butt" stroke-linejoin="miter" stroke-miterlimit="10" stroke-dasharray="" stroke-dashoffset="0" style="mix-blend-mode: normal"><path d="M202.43829,186.01647v-17.60071h18.8579v17.60071z" fill="#000bff" stroke="#000000" stroke-width="1"/><path d="M206.1922,177.59104c-0.99992,0.01246 -1.01238,-0.98746 -1.01238,-0.98746l-0.01356,-1.10657c-0.05232,-1.00742 -0.14882,-2.02902 -0.44434,-2.99355c0,0 -0.28735,-0.95783 0.67048,-1.24517c0.95783,-0.28735 1.24517,0.67048 1.24517,0.67048c0.33353,1.13182 0.45838,2.32238 0.52754,3.50029l0.01456,1.14959c0,0 0.01246,0.99992 -0.98746,1.01238z" fill="#000000" stroke="none" stroke-width="0.5"/><path d="M215.80474,177.21612c-1,0 -1,-1 -1,-1l0.00254,-0.30375c-0.08024,-1.1234 -0.16321,-2.24661 -0.2496,-3.36955c0,0 -0.0767,-0.99705 0.92036,-1.07375c0.99705,-0.0767 1.07375,0.92036 1.07375,0.92036c0.08666,1.12658 0.1699,2.25342 0.2504,3.38045l0.00254,0.44625c0,0 0,1 -1,1z" fill="#000000" stroke="none" stroke-width="0.5"/><path d="M217.12696,180.82169c0.89443,0.44721 0.44721,1.34164 0.44721,1.34164l-0.26685,0.46129c-2.75823,2.84402 -8.52374,0.39135 -11.60643,-1.28061c0,0 -0.8779,-0.47885 -0.39904,-1.35675c0.47885,-0.8779 1.35675,-0.39904 1.35675,-0.39904c1.81586,0.99676 7.70627,3.72619 9.14357,1.71939l-0.01685,-0.03871c0,0 0.44721,-0.89443 1.34164,-0.44721z" fill="#000000" stroke="none" stroke-width="0.5"/></g></g></svg>