<svg version="1.1" xmlns="http://www.w3.org/2000/svg" xmlns:xlink="http://www.w3.org/1999/xlink" width="486.53202" height="378.09423" viewBox="0,0,486.53202,378.09423"><g transform="translate(9.14285,12.35434)"><g data-paper-data="{&quot;isPaintingLayer&quot;:true}" fill-rule="nonzero" stroke-linejoin="miter" stroke-miterlimit="10" stroke-dasharray="" stroke-dashoffset="0" style="mix-blend-mode: normal"><path d="M257.23947,361.59553v-53.91511h121.15025v53.91511z" fill="#ff0000" stroke="none" stroke-width="0" stroke-linecap="butt"/><path d="M-9.14285,363.94654v-71.17129h281.45009v71.17129z" fill="#00c517" stroke="none" stroke-width="0" stroke-linecap="butt"/><path d="M378.21525,365.73989v-73.00302h99.17392v73.00302z" fill="#00c517" stroke="none" stroke-width="0" stroke-linecap="butt"/><path d="M25.91012,294.75581v-20.68515h43.95594v20.68515z" fill="#00c517" stroke="none" stroke-width="0" stroke-linecap="butt"/><path d="M102.57856,231.43563l20.03874,30.38131" fill="none" stroke="none" stroke-width="0" stroke-linecap="round"/><path d="M113.56754,273.45234l-1.29282,-18.09951" fill="none" stroke="none" stroke-width="0" stroke-linecap="round"/><path d="M319.65148,135.99845v-26.41803h60.12434c3.97769,3.8835 9.22295,6.05725 14.57684,7.42619c0.55708,0.55639 1.013,1.00996 1.26422,1.26118l1.7697,1.76971v0c1.75081,1.75081 4.14781,2.85543 6.80257,2.9254v13.03555z" fill="#00c517" stroke="none" stroke-width="0" stroke-linecap="butt"/><path d="M88.34596,131.50478c0,18.78498 -7.2445,34.01321 -16.18104,34.01321c-8.93654,0 -16.18104,-15.22823 -16.18104,-34.01321c0,-18.78498 7.2445,-34.01321 16.18104,-34.01321c8.93654,0 16.18104,15.22823 16.18104,34.01321z" fill="#006eff" stroke="none" stroke-width="0" stroke-linecap="butt"/><path d="M116.16555,243.40326v-10.66128c2.8319,-1.76575 4.71638,-4.9087 4.71638,-8.49178c0,-0.82207 -0.09919,-1.62096 -0.28627,-2.38537c1.99985,-1.40829 3.46019,-3.53123 4.00969,-5.9975c8.19154,1.58056 17.50422,2.45036 24.83048,0.65387c2.1329,-0.52301 4.64242,-0.12023 6.65845,-1.20387c3.23237,-1.73744 5.57935,-4.58431 6.61522,-7.5784h155.55394v35.66433z" fill="#00c517" stroke="none" stroke-width="0" stroke-linecap="butt"/><path d="M233.72576,168.11189v-23.11577h39.62704v23.11577z" fill="#00c517" stroke="none" stroke-width="0" stroke-linecap="butt"/><path d="M291.18496,156.88423v-0.66046h3.30226v0.66046z" fill="#00c517" stroke="none" stroke-width="0" stroke-linecap="butt"/><path d="M268.06917,167.45144v-11.88811h64.72417v11.88812z" fill="#00c517" stroke="none" stroke-width="0" stroke-linecap="butt"/><path d="M332.79335,161.50738v-27.73893h37.64569v27.73893z" fill="#00c517" stroke="none" stroke-width="0" stroke-linecap="butt"/><path d="M272.03189,146.31702h62.08236l-1.3209,8.58586l-66.04507,1.3209l-1.3209,-11.88811z" fill="#ff0000" stroke="#ff0000" stroke-width="0.5" stroke-linecap="round"/><path d="M259.4833,361.62393v-68.68687h143.97824v68.68687z" fill="#00c517" stroke="none" stroke-width="0" stroke-linecap="butt"/><path d="M317.60294,248.68686l-199.45609,-2.6418l-3.30225,-4.62315l203.4188,1.98135z" fill="none" stroke="#ff0000" stroke-width="2.5" stroke-linecap="round"/><path d="M103.73529,89.34374l1.20256,78.76815l-62.74281,1.3209l-4.62315,-32.36208l-22.45532,-1.98135" fill="none" stroke="#00c517" stroke-width="10.5" stroke-linecap="round"/><path d="M317.60298,246.04506l-200.11654,-2.6418l-0.94057,-10.91059" fill="none" stroke="#ff0000" stroke-width="10.5" stroke-linecap="round"/><path d="M144.56491,246.04507l-27.73893,-3.30226" fill="none" stroke="#ff0000" stroke-width="10.5" stroke-linecap="round"/><path d="M321.56568,245.38462l-0.66045,-73.31002" fill="none" stroke="#ff0000" stroke-width="10.5" stroke-linecap="round"/><path d="M97.06742,89.45412l0.60549,72.05327" fill="none" stroke="#ff0000" stroke-width="10.5" stroke-linecap="round"/><path d="M423.92447,209.41558l-6.19398,-0.88485" fill="none" stroke="none" stroke-width="0" stroke-linecap="round"/><path d="M453.12467,93.49964v116.8008" fill="none" stroke="#00c517" stroke-width="10.5" stroke-linecap="round"/><path d="M384.99087,207.64588v-39.81846l19.61605,0.67641" fill="none" stroke="#00c517" stroke-width="10.5" stroke-linecap="round"/><path d="M174.2792,243.01537c-3.36549,0.16427 -7.12084,-0.55264 -10.38569,0c-1.58927,0.26901 -3.00903,1.17245 -4.56284,1.60117c-2.25564,0.62235 -4.62595,0.70823 -6.94027,1.0534c-2.68028,0.39975 -5.25334,2.20607 -7.96369,2.65456c-7.01755,1.16124 -15.48313,0.60315 -20.89095,-3.99048c-1.26675,-1.07603 -3.07669,-1.67317 -3.88518,-3.12535c-0.53378,-0.95874 -0.92486,-1.93657 -1.21064,-2.92837c-0.68445,0.24624 -1.49202,0.39149 -2.44486,0.39149c-6.25,0 -6.25,-6.25 -6.25,-6.25c0.08716,-3.94845 -0.27788,-4.58527 1.81829,-8.59494c0.3865,-0.73932 1.31235,-1.072 1.76971,-1.76971c1.02268,-1.56012 0.80243,-3.71406 1.76971,-5.30912c0.81075,-1.33695 5.35068,-5.52812 6.46422,-6.02785c1.23605,-0.55471 2.71219,-0.15291 4.04519,-0.39505c1.8354,-0.33341 3.46872,-1.46516 5.30913,-1.7697c0.64506,-0.10674 6.49272,-0.08071 7.19512,-0.08071c5.60408,0 11.20816,0 16.81224,0c3.87496,0.18913 7.51515,-1.48331 11.61939,-0.80415c0.42183,0.0698 0.84302,0.17572 1.26372,0.30589c1.18187,-0.38659 2.15942,-0.38659 2.15942,-0.38659c5.60408,0 11.20815,0 16.81223,0h0.19908c1.92906,-0.30695 3.36139,0.28091 4.39032,1.11022c1.14788,0.73684 2.18765,1.9627 2.47017,4.00217c2.35265,8.52921 0.96014,18.84372 0.96014,27.68325v0.88485c0,0 0,6.25 -6.25,6.25c-3.40201,0 -4.95222,-1.85178 -5.65863,-3.53941h-2.30506c-2.12739,-0.04697 -4.29156,-0.29266 -6.31027,-0.96556z" fill="#ff0000" stroke="none" stroke-width="0.5" stroke-linecap="butt"/><path d="" fill="#ff0000" stroke="none" stroke-width="0.5" stroke-linecap="butt"/><path d="M447.75952,213.83986c0,-3.45178 2.79822,-6.25 6.25,-6.25c3.45178,0 6.25,2.79822 6.25,6.25c0,3.45178 -2.79822,6.25 -6.25,6.25c-3.45178,0 -6.25,-2.79822 -6.25,-6.25z" fill="#ff0000" stroke="none" stroke-width="0.5" stroke-linecap="butt"/><path d="M447.75952,93.49963c0,-3.45178 2.79822,-6.25 6.25,-6.25c3.45178,0 6.25,2.79822 6.25,6.25c0,3.45178 -2.79822,6.25 -6.25,6.25c-3.45178,0 -6.25,-2.79822 -6.25,-6.25z" fill="#ff0000" stroke="none" stroke-width="0.5" stroke-linecap="butt"/><text transform="translate(7.12317,80.73989) scale(1.84345,1.84345)" font-size="40" xml:space="preserve" fill="#009fff" fill-rule="nonzero" stroke="none" stroke-width="1" stroke-linecap="butt" stroke-linejoin="miter" stroke-miterlimit="10" stroke-dasharray="" stroke-dashoffset="0" font-family="Pixel" font-weight="normal" text-anchor="start" style="mix-blend-mode: normal"><tspan x="0" dy="0">LEVEL 4</tspan></text></g></g></svg>