<svg version="1.1" xmlns="http://www.w3.org/2000/svg" xmlns:xlink="http://www.w3.org/1999/xlink" width="729.5" height="609.22043" viewBox="0,0,729.5,609.22043"><g transform="translate(169.41933,98.20966)"><g data-paper-data="{&quot;isPaintingLayer&quot;:true}" fill-rule="nonzero" stroke-linejoin="miter" stroke-miterlimit="10" stroke-dasharray="" stroke-dashoffset="0" style="mix-blend-mode: normal"><path d="M-169.41933,285.38713c0,-0.27614 0.22386,-0.5 0.5,-0.5c0.27614,0 0.5,0.22386 0.5,0.5c0,0.27614 -0.22386,0.5 -0.5,0.5c-0.27614,0 -0.5,-0.22386 -0.5,-0.5z" fill="#000000" stroke="none" stroke-width="0.5" stroke-linecap="butt"/><path d="M-5.17742,74.61291v-16.54839h87.09677v16.54839z" fill="#00c517" stroke="none" stroke-width="0" stroke-linecap="butt"/><path d="M145.5,46.74196v-12.19355h85.35484v12.19355z" fill="#00c517" stroke="none" stroke-width="0" stroke-linecap="butt"/><path d="M327.29033,33.96776v7h-100.99903c2.1778,-1.63622 3.66579,-4.141 3.94965,-7z" fill="#ff0000" stroke="none" stroke-width="0" stroke-linecap="butt"/><path d="M327.53227,35.41938v-11.32258h111.48387v11.32258z" fill="#00c517" stroke="none" stroke-width="0" stroke-linecap="butt"/><path d="M497.371,-89.49997v-8.70968h62.70968v8.70968z" fill="#00c517" stroke="none" stroke-width="0" stroke-linecap="butt"/><text transform="translate(142.01612,20.61293) scale(0.5,0.5)" font-size="40" xml:space="preserve" fill="#00a9ff" fill-rule="nonzero" stroke="none" stroke-width="1" stroke-linecap="butt" stroke-linejoin="miter" stroke-miterlimit="10" stroke-dasharray="" stroke-dashoffset="0" font-family="Pixel" font-weight="normal" text-anchor="start" style="mix-blend-mode: normal"><tspan x="0" dy="0">SAME GLITCH AGAIN</tspan></text><text transform="translate(6.16971,217.88713) scale(1.6701,1.6701)" font-size="40" xml:space="preserve" fill="#00a9ff" fill-rule="nonzero" stroke="none" stroke-width="1" stroke-linecap="butt" stroke-linejoin="miter" stroke-miterlimit="10" stroke-dasharray="" stroke-dashoffset="0" font-family="Pixel" font-weight="normal" text-anchor="start" style="mix-blend-mode: normal"><tspan x="0" dy="0">LEVEL 10</tspan></text><path d="M145.5,80.7097v-40.93548h6.09677v40.93548z" fill="#00c517" stroke="none" stroke-width="0" stroke-linecap="butt"/><path d="M-6.91934,80.7097v-9.58065h152.41935v9.58065z" fill="#ff0000" stroke="none" stroke-width="0" stroke-linecap="butt"/><path d="M-8.66129,85.06455v-6.09677h160.25806v6.09677z" fill="#00c517" stroke="none" stroke-width="0" stroke-linecap="butt"/><path d="M381.53229,88.54841v-8.70968h100.16129v8.70968z" fill="#00c517" stroke="none" stroke-width="0" stroke-linecap="butt"/><path d="M209.08065,116.41938v-6.09677h122.80645v6.09677z" fill="#00c517" stroke="none" stroke-width="0" stroke-linecap="butt"/><path d="M-8.66129,141.67744v-6.09677h199.45161v6.09677z" fill="#00c517" stroke="none" stroke-width="0" stroke-linecap="butt"/><path d="M196.88712,153v-5.22581h148.06452v5.22581z" fill="#00c517" stroke="none" stroke-width="0" stroke-linecap="butt"/><path d="M359.75807,171.29035v-4.35484h106.25806v4.35484z" fill="#00c517" stroke="none" stroke-width="0" stroke-linecap="butt"/><path d="M221.27421,240.96777v-7.83871h186.3871v7.83871z" fill="#00c517" stroke="none" stroke-width="0" stroke-linecap="butt"/><path d="M42.72582,264.4839v-6.96774h171.58065v6.96774z" fill="#00c517" stroke="none" stroke-width="0" stroke-linecap="butt"/><path d="M210.82259,264.4839v-30.48387h10.45161v30.48387z" fill="#00c517" stroke="none" stroke-width="0" stroke-linecap="butt"/><path d="M199.09342,152.57029c-0.44126,2.20631 -2.64757,1.76505 -2.64757,1.76505l-4.49108,-0.90265c-1.2088,-0.48487 -2.72065,-0.5187 -3.62639,-1.4546c-2.53583,-2.62029 -1.52998,-7.96366 -1.52998,-11.17164c0,0 0,-2.25 2.25,-2.25c2.25,0 2.25,2.25 2.25,2.25c0,2.74308 -1.48113,7.68549 1.81137,8.27699l4.2186,0.83929c0,0 2.20631,0.44126 1.76505,2.64757z" fill="#00c517" stroke="none" stroke-width="0.5" stroke-linecap="butt"/><path d="M385.01615,82.81455c2.25,0 2.25,2.25 2.25,2.25l-0.37789,2.11904c-1.78517,2.63753 -2.20595,5.79218 -5.04406,7.63363c-2.20219,1.42885 -6.39729,1.52851 -8.10448,3.80661c-0.52493,0.70047 -0.28113,1.79314 -0.79252,2.50356c-0.30247,0.4202 -6.05327,5.27312 -6.16695,5.37971c-1.19145,1.11706 -2.06219,2.60785 -3.43274,3.49609c-1.40147,0.90829 -3.12156,1.18855 -4.68821,1.76708c-8.3519,3.08418 -17.64052,3.72473 -26.41671,5.12892c0,0 -2.22174,0.35548 -2.57722,-1.86626c-0.35548,-2.22174 1.86626,-2.57722 1.86626,-2.57722c5.92463,-0.94794 11.84815,-1.90311 17.77393,-2.84383c3.53225,-0.56075 8.53287,-1.3782 11.58582,-3.37929c1.14331,-0.74939 1.80894,-2.0548 2.79921,-2.9972c1.73892,-1.65484 4.16831,-2.63944 5.52352,-4.62079c0.54255,-0.79322 0.3327,-1.98522 0.94942,-2.72225c2.3722,-2.83495 6.28556,-3.32776 9.31487,-4.90307c1.47887,-0.76905 2.8022,-4.99033 3.66562,-6.30185l-0.37789,0.37711c0,0 0,-2.25 2.25,-2.25z" fill="#ff0000" stroke="none" stroke-width="0.5" stroke-linecap="butt"/><path d="M360.26615,166.06453c0,2.25 -2.25,2.25 -2.25,2.25l-1.58248,-0.11546c-7.58561,-2.68458 -14.05848,-9.66898 -17.05498,-16.97633c0,0 -0.83563,-2.08907 1.25344,-2.9247c2.08907,-0.83563 2.9247,1.25344 2.9247,1.25344c2.26217,5.83236 8.10475,12.49701 14.29986,14.37851l0.15946,-0.11546c0,0 2.25,0 2.25,2.25z" fill="#ff0000" stroke="none" stroke-width="0.5" stroke-linecap="butt"/><path d="M211.51617,247.47614l2.92635,0.09324c0.04763,0.02066 0.09526,0.04132 0.14289,0.06198l0.00702,-0.04215l4.40229,0.73371c1.08453,0.1611 1.91659,1.09611 1.91659,2.22547c0,1.01214 -0.6683,1.86819 -1.58771,2.15094l-2.56368,0.85456l-0.0453,-0.13589l-0.30581,0.2223c-0.6494,0.00667 -1.29496,-0.05994 -1.93419,-0.18177l0.49414,0.16471c0.91941,0.28276 1.58771,1.13881 1.58771,2.15094c0,1.19689 -0.93455,2.17551 -2.11375,2.24594l-4.08242,0.28033c-3.08346,0.17999 -4.68468,0.59332 -6.74525,-0.01554c-0.29337,0.88403 -0.64658,1.602 -1.10058,1.95776c-1.35061,1.05833 -3.44421,0.13706 -5.14708,-0.07377c-1.76487,-0.2185 -3.17373,-0.60621 -4.49905,-1.12049l-1.84776,-0.46194c-0.39261,0.47589 -0.80773,0.94078 -1.25215,1.3916l-1.74194,1.74194c0,0 -1.59099,1.59099 -3.18198,0c-1.59099,-1.59099 0,-3.18198 0,-3.18198l1.74194,-1.74194c0.10994,-0.10804 0.21716,-0.2165 0.32185,-0.32537c-0.07133,-0.21932 -0.10989,-0.45343 -0.10989,-0.69655c0,-0.79338 0.41063,-1.49085 1.03096,-1.89147l1.9727,-1.31513c0.42724,-0.70021 0.84206,-1.41218 1.28481,-2.13448c-0.35303,-0.27375 -0.58715,-0.57915 -0.50166,-0.98866c0.7173,-3.43586 5.21767,-5.98148 8.31268,-7.90597c1.36703,-1.13512 2.81451,-2.208 4.34221,-3.26995c1.4199,-0.98701 2.67749,-2.2848 4.28294,-2.92734c1.02165,-0.40889 2.1997,-0.07156 3.29955,-0.10734c0,0 2.25,0 2.25,2.25c0,1.51418 -1.01899,2.00936 -1.68548,2.1713l0.09777,0.03259c0.63355,0.19484 1.14787,0.66191 1.40644,1.26469l1.07342,-0.37562c0.24651,-0.0928 0.51362,-0.14357 0.79258,-0.14357c1.24264,0 2.25,1.00736 2.25,2.25c0,0.80085 -0.4184,1.50397 -1.04854,1.90271l-3.73559,2.44363c-0.23637,0.15294 -0.47201,0.30174 -0.70703,0.44652z" fill="#ff0000" stroke="none" stroke-width="0.5" stroke-linecap="butt"/><path d="M401.12366,237.80915c0.54571,-2.18282 2.72853,-1.63712 2.72853,-1.63712l1.70689,0.46222l-1.38163,-0.8923l1.39121,-0.89849c-0.03359,-0.09312 -0.06379,-0.19224 -0.09016,-0.29774c-0.54571,-2.18282 1.63712,-2.72853 1.63712,-2.72853c3.79352,-0.93082 7.57658,-1.39092 11.52236,-0.90585c2.98953,0.36751 5.92719,1.13794 8.90638,1.74182l1.02019,-0.03218c0,0 0.80458,0 1.45148,0.48113c1.52705,0.23802 3.07141,0.39277 4.64529,0.38984c1.26221,-0.00235 6.26916,-0.37785 8.53624,0.22743c0.70492,-8.64702 2.27828,-17.13249 2.27828,-25.8484c0,0 0,-2.25 2.25,-2.25c2.25,0 2.25,2.25 2.25,2.25c0,11.24407 -2.6129,22.08402 -2.6129,33.3871v4.06452c0,1.24264 -1.00736,2.25 -2.25,2.25c-0.72329,0 -1.36688,-0.34129 -1.77849,-0.87162c-1.65743,-0.0268 -3.35945,0.29277 -4.9703,-0.0959c-1.01757,-0.24552 -1.63044,-1.3807 -2.6129,-1.74194c-2.58258,-0.94958 -8.11601,0.68883 -10.80241,0.84034c-6.00567,0.33871 -14.78107,0.04787 -19.26706,-4.51972l-2.921,-0.6461c0,0 -2.18282,-0.54571 -1.63712,-2.72853zM412.33093,240.06615c2.36688,0.90284 5.01717,1.22696 7.73876,1.26427c-2.59452,-0.42461 -5.17859,-0.86692 -7.73876,-1.26427z" fill="#ff0000" stroke="none" stroke-width="0.5" stroke-linecap="butt"/><path d="M519.65325,206.12906c0,2.25 -2.25,2.25 -2.25,2.25h-1.59677c-17.93229,0 -35.91993,-0.4243 -53.84682,0.02811c-4.79472,0.121 -9.43121,0.84286 -14.23383,0.84286c0,0 -2.25,0 -2.25,-2.25c0,-2.25 2.25,-2.25 2.25,-2.25c4.76316,0 9.35769,-0.71631 14.11792,-0.84136c17.96364,-0.4719 35.99323,-0.0296 53.96272,-0.0296h1.59677c0,0 2.25,0 2.25,2.25z" fill="#00c517" stroke="none" stroke-width="0.5" stroke-linecap="butt"/><path d="M85.04033,308.90325c0,2.25 -2.25,2.25 -2.25,2.25l-1.97739,-0.01235c-1.3152,-0.13839 -2.63039,-0.27678 -3.94559,-0.41518c-13.2502,-1.39957 -26.48615,-3.0221 -39.81002,-3.93247c-12.48904,-0.85334 -25.35508,0.00516 -37.87991,0.00516c0,0 -2.25,0 -2.25,-2.25c0,-2.25 2.25,-2.25 2.25,-2.25c12.63019,0 25.58896,-0.84417 38.18461,0.00516c13.37982,0.90222 26.67105,2.55194 39.97623,3.94685c1.3152,0.13839 2.63039,0.27678 3.94559,0.41518l1.50648,-0.01235c0,0 2.25,0 2.25,2.25z" fill="#00c517" stroke="none" stroke-width="0.5" stroke-linecap="butt"/><path d="M384.65015,346.23691c0.11795,2.24691 -2.12895,2.36486 -2.12895,2.36486l-2.3192,0.12148c-23.73179,1.97907 -47.45589,1.62355 -71.25037,1.62355c-30.628,0 -61.13507,-0.19186 -91.74045,-1.42356c-30.40078,-1.22347 -60.88018,-3.80225 -91.30794,-3.80225c-15.38971,0 -31.04929,-0.8665 -46.41119,-0.00767c-5.18841,0.29007 -10.43804,1.90732 -15.5915,2.60413c-3.76145,0.50859 -7.63818,0.58975 -11.42151,0.88078c0,0 -2.24337,0.17257 -2.41594,-2.07081c-0.17257,-2.24337 2.07081,-2.41594 2.07081,-2.41594c3.716,-0.28585 7.52974,-0.35867 11.22365,-0.86115c5.21925,-0.70997 10.50679,-2.31336 15.76334,-2.62168c15.47768,-0.90784 31.27489,-0.00767 46.78236,-0.00767c30.48844,0 61.02761,2.57998 91.48889,3.80589c30.54517,1.22928 60.99169,1.41992 91.55949,1.41992c23.69324,0 47.31475,0.35463 70.94552,-1.61321l2.38814,-0.12563c0,0 2.24691,-0.11795 2.36486,2.12895z" fill="#00c517" stroke="none" stroke-width="0.5" stroke-linecap="butt"/><path d="M485.40325,265.19357c0,10.10147 -62.16372,7.29032 -73.46774,7.29032c-11.30402,0 -20.46774,-8.18886 -20.46774,-18.29032c0,-10.10147 9.16372,-18.29032 20.46774,-18.29032c9.56713,0 59.60115,-0.13429 61.84417,7.7922c0.40722,1.43904 11.62357,19.946 11.62357,21.49812z" fill="#006eff" stroke="none" stroke-width="0" stroke-linecap="butt"/><path d="M377.08066,413.39788c0,8.17738 -10.13858,14.80645 -22.64516,14.80645c-12.50658,0 -22.64516,-6.62907 -22.64516,-14.80645c0,-8.17738 10.13858,-14.80645 22.64516,-14.80645c12.50658,0 22.64516,6.62907 22.64516,14.80645z" fill="#006eff" stroke="none" stroke-width="0" stroke-linecap="butt"/><path d="M395.8226,436.10755c0,41.36791 -41.72417,74.90323 -93.19355,74.90323c-51.46938,0 -93.19355,-33.53532 -93.19355,-74.90323c0,-41.36791 41.72417,-74.90323 93.19355,-74.90323c51.46938,0 93.19355,33.53532 93.19355,74.90323z" fill="#006eff" stroke="none" stroke-width="0" stroke-linecap="butt"/><path d="M65.73388,340.25808c0,-1.0851 0.76813,-1.9908 1.7903,-2.203c0.10765,-0.43407 0.29402,-0.73204 0.29402,-0.73204l0.93147,-1.4893c5.40469,-8.59627 8.27846,-19.14857 11.94239,-28.61371c0,0 0.81224,-2.09828 2.91051,-1.28604c2.09828,0.81224 1.28604,2.91051 1.28604,2.91051c-3.77833,9.76069 -6.78966,20.48489 -12.32371,29.37544l-0.93147,1.4893c0,0 -0.53383,0.85352 -1.45825,1.06165c-0.23207,0.99555 -1.12507,1.73719 -2.1913,1.73719c-1.24264,0 -2.25,-1.00736 -2.25,-2.25z" fill="#ff0000" stroke="none" stroke-width="0.5" stroke-linecap="butt"/><path d="M327.64507,38.20179c0.09949,-0.48041 0.19874,-0.96086 0.2864,-1.44297c0,0 0.00311,-0.01713 0.0103,-0.04809c-0.10765,-0.60887 -0.1556,-2.00575 1.49189,-2.55492c2.13454,-0.71151 2.84605,1.42302 2.84605,1.42302l0.74889,4.33065c-0.3113,0.07417 -0.70851,0.06034 -1.09524,0.05725c-0.04762,0.26314 -0.09793,0.538 -0.15047,0.82072l0.21733,0.326c0.24913,0.36215 0.39495,0.80088 0.39495,1.27367c0,0.92476 -0.5579,1.71922 -1.35548,2.06517c-0.38018,1.67381 -0.77644,3.05343 -1.09775,3.31987c-1.45544,1.20692 -3.82079,0.66474 -5.66655,0.25471c-1.57955,-0.35089 -2.74659,-1.72059 -4.19338,-2.44508c-1.43552,-0.71885 -3.42023,-1.27716 -5.16632,-1.59799c-1.1459,-0.03624 -2.28727,-0.10861 -3.42125,-0.2467c-0.25901,-0.03154 -0.5161,-0.07402 -0.77182,-0.12439c-3.75153,-0.02771 -7.57056,0.54869 -11.28303,0.14249c-4.14594,-0.45362 -7.67791,-1.23135 -11.92623,-0.86812c-6.43776,0.55043 -12.41531,1.78017 -18.93199,1.73318c-3.56242,0.8906 -7.19554,1.04481 -10.85133,0.97666c-2.14799,0.61748 -4.30362,1.18501 -6.48253,1.62404c-3.27405,0.65969 -5.73071,-0.39386 -8.6953,-1.20448c-0.60526,-0.1655 -1.20789,-0.29937 -1.80817,-0.41501c-3.13614,0.48478 -5.35073,1.6162 -8.79928,1.55201l-0.46289,-0.4811l-0.13317,0.19975l-2.58387,-1.72258c-0.62033,-0.40062 -1.03096,-1.09809 -1.03096,-1.89147c0,-1.10599 0.79799,-2.0256 1.84961,-2.21448l4.31397,-0.86279l0.00677,0.03385c0.13184,-0.02891 0.26455,-0.05476 0.39821,-0.07726c2.23917,-0.37689 4.43729,0.18214 6.62469,0.89991c0.03472,-0.00429 0.06953,-0.00842 0.10442,-0.01238c5.20187,-0.59017 10.51639,-0.04401 15.78343,0.08249c3.06856,-0.92317 6.13517,-1.92269 9.22542,-2.65036c12.87824,-3.03247 28.40263,-4.96289 41.07423,-0.33184c1.73109,0.21479 3.36936,0.95662 5.10063,1.16996c0.04758,0.00586 0.09518,0.01161 0.1428,0.01723c0.87041,0.03764 1.73424,0.10135 2.59047,0.20224c3.79494,0.16602 7.66807,-0.1441 11.46822,0.20086c-0.13726,-0.20086 -0.20073,-0.42056 -0.14173,-0.67153c0.13077,-0.5563 0.72031,-0.7247 1.37004,-0.84222zM326.36589,44.23135c0.29052,0.16901 0.5633,0.26286 0.72467,0.08021l-0.56009,-0.06223c-0.05485,-0.00614 -0.10971,-0.01213 -0.16458,-0.01798z" fill="#00c517" stroke="none" stroke-width="0.5" stroke-linecap="butt"/><path d="M85.81496,306.50792c0.72521,0.09907 1.45715,0.15491 2.20117,0.14532l-0.43548,2.25l0.43548,2.25c-0.29195,-0.00285 -0.58023,-0.01268 -0.86541,-0.0287l-0.00555,0.0287c0,0 -0.20879,0 -0.49917,-0.0636c-2.96208,-0.24282 -5.62078,-1.11901 -8.65177,-1.72203c0,0 -2.20631,-0.44126 -1.76505,-2.64757c0.44126,-2.20631 2.64757,-1.76505 2.64757,-1.76505c0.36199,0.07276 0.72148,0.15225 1.07909,0.23585c0.38528,-0.68657 1.12022,-1.15051 1.96352,-1.15051c0.72313,0 1.36658,0.34113 1.77821,0.87125c0.99953,0.0158 1.84078,0.68336 2.11739,1.59633z" fill="#00c517" stroke="none" stroke-width="0.5" stroke-linecap="butt"/><path d="M296.40243,349.15503v-24.11434h42.86995v24.11434z" fill="#ff0000" stroke="none" stroke-width="0" stroke-linecap="butt"/><path d="M314.01676,342.45659c0,-3.58985 2.91015,-6.5 6.5,-6.5c3.58985,0 6.5,2.91015 6.5,6.5c0,3.58985 -2.91015,6.5 -6.5,6.5c-3.58985,0 -6.5,-2.91015 -6.5,-6.5z" fill="#ff0000" stroke="none" stroke-width="0.5" stroke-linecap="butt"/><text transform="translate(30,423.84409) scale(0.5,0.5)" font-size="40" xml:space="preserve" fill="#00a9ff" fill-rule="nonzero" stroke="none" stroke-width="1" stroke-linecap="butt" stroke-linejoin="miter" stroke-miterlimit="10" stroke-dasharray="" stroke-dashoffset="0" font-family="Pixel" font-weight="normal" text-anchor="start" style="mix-blend-mode: normal"><tspan x="0" dy="0">LEAP OF FAITH</tspan></text><path d="M362.58068,396.16666v-11h156v11z" fill="none" stroke="none" stroke-width="0" stroke-linecap="butt"/><path d="M379.58068,343.16666l87,1" fill="none" stroke="#00c517" stroke-width="7" stroke-linecap="round"/></g></g></svg>