<svg version="1.1" xmlns="http://www.w3.org/2000/svg" xmlns:xlink="http://www.w3.org/1999/xlink" width="532" height="380.05748" viewBox="0,0,532,380.05748"><g transform="translate(28.87683,-29.75)"><g data-paper-data="{&quot;isPaintingLayer&quot;:true}" fill-rule="nonzero" stroke-linejoin="miter" stroke-miterlimit="10" stroke-dasharray="" stroke-dashoffset="0" style="mix-blend-mode: normal"><path d="M-28.87682,409.80748v-83h532v83z" fill="#00c517" stroke="none" stroke-width="0" stroke-linecap="butt"/><path d="M346.13305,289.51369l28.05946,-122.11927l1.32961,119.09863z" fill="none" stroke="#ff0000" stroke-width="14.5" stroke-linecap="round"/><path d="M368.64421,217.88605l-18.05275,89.02589" fill="none" stroke="#ff0000" stroke-width="14.5" stroke-linecap="round"/><path d="M325.12316,323.80748l55,-214l3.31977,211.39242l-52.29648,0.95898l6.97671,-26.3514l38,1" fill="none" stroke="#ff0000" stroke-width="14.5" stroke-linecap="round"/><path d="M382.12319,296.80748l-1,16" fill="none" stroke="#ff0000" stroke-width="14.5" stroke-linecap="round"/><path d="M383.6232,308.80748c0,6 -6,6 -6,6c-14.66667,0 -30.33333,0 -45,0c0,0 -6,0 -6,-6c0,-6 6,-6 6,-6c1.63343,0 3.26686,0 4.90029,0l0.59145,-1.86746c2.80187,0.05845 5.61449,-0.07656 8.40562,0.17536c0.73121,0.06599 1.33978,0.64744 2.06373,0.76957c1.65643,0.27943 3.35907,-0.07747 5.03891,-0.07747c1.83615,0 3.99405,0.26602 5.98351,0.24172c-1.49448,-0.75274 -2.98351,-2.25272 -2.98351,-5.24172c0,-1.47012 0.36021,-2.58004 0.90411,-3.418c-0.10475,-2.56694 -0.2108,-5.24393 0.17336,-7.5431c0.65235,-3.90414 3.57201,-6.0594 3.96748,-9.772c0.56835,-5.33551 -0.6899,-10.89034 0.03252,-16.228c0.22902,-1.69212 0.98737,-3.33258 0.92253,-5.0389c0,0 0,-6 6,-6c6,0 6,6 6,6c-0.04591,2.34755 -0.7229,4.64002 -1.07747,6.9611c-0.78107,5.11293 0.85688,10.63518 0.03252,15.772c-0.31059,1.93537 -0.73929,3.87456 -1.46796,5.69422c-0.27493,0.68656 -2.43395,3.07191 -2.56456,4.53377c-0.26054,2.91616 0.07747,6.10205 0.07747,9.03891l-4.94184,4.23586c1.7203,-0.61751 3.45419,-1.39786 5.04448,-1.92796c0,0 5.62333,-1.87444 7.55456,3.6921h0.34281c0,0 6,0 6,6z" fill="#ff0000" stroke="none" stroke-width="0.5" stroke-linecap="butt"/><path d="M132.62319,278.80748l-55,2" fill="none" stroke="#00c517" stroke-width="14.5" stroke-linecap="round"/><path d="M143.62319,228.80748h56" fill="none" stroke="#00c517" stroke-width="14.5" stroke-linecap="round"/><path d="M137.62319,177.80748l-70,1" fill="none" stroke="#00c517" stroke-width="14.5" stroke-linecap="round"/><path d="M160.62319,140.80748l62,-1" fill="none" stroke="#00c517" stroke-width="14.5" stroke-linecap="round"/><path d="M142.6232,86.80748h-54" fill="none" stroke="#00c517" stroke-width="14.5" stroke-linecap="round"/><path d="M151.62319,39.80748h42" fill="none" stroke="#00c517" stroke-width="14.5" stroke-linecap="round"/><path d="M251.62319,37h51" fill="none" stroke="#00c517" stroke-width="14.5" stroke-linecap="round"/><path d="M402.6232,39l40.70752,-0.79819" fill="none" stroke="#00c517" stroke-width="14.5" stroke-linecap="round"/><path d="M67.6232,257.30748c0,30.37566 -10.96902,55 -24.5,55c-13.53098,0 -24.5,-24.62434 -24.5,-55c0,-30.37566 10.96902,-55 24.5,-55c13.53098,0 24.5,24.62434 24.5,55z" fill="#006eff" stroke="none" stroke-width="0" stroke-linecap="butt"/><text transform="translate(270.31586,68.62439) rotate(90.30242) scale(1.18412,1.31676) skewX(0)" font-size="40" xml:space="preserve" fill="#009fff" fill-rule="nonzero" stroke="none" stroke-width="1" stroke-linecap="butt" stroke-linejoin="miter" stroke-miterlimit="10" stroke-dasharray="" stroke-dashoffset="0" font-family="Pixel" font-weight="normal" text-anchor="start" style="mix-blend-mode: normal"><tspan x="0" dy="0">LEVEL 14</tspan></text><path d="" fill="#00c517" stroke="none" stroke-width="0.5" stroke-linecap="butt"/><path d="" fill="#00c517" stroke="none" stroke-width="0.5" stroke-linecap="butt"/><path d="M489.62317,205c0,1.43712 -0.34421,2.53002 -0.86776,3.36115c0.27211,-2.6411 -0.20864,-5.40861 -1.01612,-7.88414c1.04789,0.8797 1.88388,2.28334 1.88388,4.52299z" fill="#00c517" stroke="none" stroke-width="0.5" stroke-linecap="butt"/><path d="" fill="#00c517" stroke="none" stroke-width="0.5" stroke-linecap="butt"/><path d="M475.62317,208.5h-23" fill="none" stroke="#00c517" stroke-width="2.5" stroke-linecap="round"/><path d="M480.62317,132.5l-24,-2" fill="none" stroke="#00c517" stroke-width="2.5" stroke-linecap="round"/></g></g></svg>