<svg version="1.1" xmlns="http://www.w3.org/2000/svg" xmlns:xlink="http://www.w3.org/1999/xlink" width="486.53201" height="384.55787" viewBox="0,0,486.53201,384.55787"><g transform="translate(9.14285,18.81798)"><g data-paper-data="{&quot;isPaintingLayer&quot;:true}" fill-rule="nonzero" stroke-linejoin="miter" stroke-miterlimit="10" stroke-dasharray="" stroke-dashoffset="0" style="mix-blend-mode: normal"><path d="M257.23945,361.59553v-53.91511h121.15025v53.91511z" fill="#ff0000" stroke="none" stroke-width="0" stroke-linecap="butt"/><path d="M-9.14285,363.94654v-71.17129h281.45009v71.17129z" fill="#00c517" stroke="none" stroke-width="0" stroke-linecap="butt"/><path d="M378.21524,365.73989v-73.00302h99.17392v73.00302z" fill="#00c517" stroke="none" stroke-width="0" stroke-linecap="butt"/><path d="M25.91011,294.75581v-20.68515h43.95594v20.68515z" fill="#00c517" stroke="none" stroke-width="0" stroke-linecap="butt"/><path d="M122.61729,261.81694l-20.03874,-30.38131" fill="none" stroke="none" stroke-width="0" stroke-linecap="round"/><path d="M113.56753,273.45234l-1.29282,-18.09951" fill="none" stroke="none" stroke-width="0" stroke-linecap="round"/><path d="M319.65148,135.99845v-26.41803h84.53768v26.41803z" fill="#00c517" stroke="none" stroke-width="0" stroke-linecap="butt"/><path d="M471.48798,258.92384c0,18.78498 -7.2445,34.01321 -16.18104,34.01321c-8.93654,0 -16.18104,-15.22823 -16.18104,-34.01321c0,-18.78498 7.2445,-34.01321 16.18104,-34.01321c8.93654,0 16.18104,15.22823 16.18104,34.01321z" fill="#006eff" stroke="#000000" stroke-width="0.5" stroke-linecap="butt"/><path d="M116.16554,243.40326v-10.66128c2.8319,-1.76575 4.71638,-4.9087 4.71638,-8.49178c0,-0.82207 -0.09919,-1.62096 -0.28627,-2.38537c0.05081,-0.03578 0.10127,-0.07202 0.15138,-0.10872c0.70939,0.15964 1.44732,0.24389 2.20493,0.24389c3.71037,0 6.94877,-2.02074 8.67471,-5.02172c6.1921,0.74712 12.51857,0.84024 17.80915,-0.45708c2.1329,-0.52301 4.64242,-0.12023 6.65845,-1.20387c3.23237,-1.73744 5.57935,-4.58431 6.61522,-7.5784h155.55394v35.66433z" fill="#00c517" stroke="none" stroke-width="0" stroke-linecap="butt"/><path d="M233.72575,168.11189v-23.11577h39.62704v23.11577z" fill="#00c517" stroke="none" stroke-width="0" stroke-linecap="butt"/><path d="M291.18496,156.88423v-0.66046h3.30226v0.66046z" fill="#00c517" stroke="none" stroke-width="0" stroke-linecap="butt"/><path d="M268.06917,167.45144v-11.88811h64.72417v11.88812z" fill="#00c517" stroke="none" stroke-width="0" stroke-linecap="butt"/><path d="M332.79335,161.50738v-27.73893h37.64569v27.73893z" fill="#00c517" stroke="none" stroke-width="0" stroke-linecap="butt"/><path d="M272.03189,146.31702h62.08236l-1.3209,8.58586l-66.04507,1.3209l-1.3209,-11.88811z" fill="#ff0000" stroke="#ff0000" stroke-width="0.5" stroke-linecap="round"/><path d="M259.4833,361.62393v-68.68687h143.97824v68.68687z" fill="#00c517" stroke="none" stroke-width="0" stroke-linecap="butt"/><path d="M317.60294,248.68686l-199.45609,-2.6418l-3.30225,-4.62315l203.4188,1.98135z" fill="none" stroke="#ff0000" stroke-width="2.5" stroke-linecap="round"/><path d="M433.17792,-13.56798l0.66045,115.57886" fill="none" stroke="#00c517" stroke-width="10.5" stroke-linecap="round"/><path d="M198.0614,78.95105h-110.95571" fill="none" stroke="#00c517" stroke-width="10.5" stroke-linecap="round"/><path d="M103.61695,81.59286l1.3209,86.51903l-62.74281,1.3209l-4.62315,-32.36208l-22.45532,-1.98135" fill="none" stroke="#00c517" stroke-width="10.5" stroke-linecap="round"/><path d="M317.60297,246.04506l-200.11654,-2.6418l-0.94057,-10.91059" fill="none" stroke="#ff0000" stroke-width="10.5" stroke-linecap="round"/><path d="M144.5649,246.04507l-27.73893,-3.30226" fill="none" stroke="#ff0000" stroke-width="10.5" stroke-linecap="round"/><path d="M321.56566,245.38462l-0.66045,-73.31002" fill="none" stroke="#ff0000" stroke-width="10.5" stroke-linecap="round"/><path d="M97.01245,82.91375l0.66045,78.59363" fill="none" stroke="#ff0000" stroke-width="10.5" stroke-linecap="round"/><text transform="translate(16.12317,72.16275) scale(2.07774,1.46631)" font-size="40" xml:space="preserve" fill="#009fff" fill-rule="nonzero" stroke="none" stroke-width="1" stroke-linecap="butt" stroke-linejoin="miter" stroke-miterlimit="10" stroke-dasharray="" stroke-dashoffset="0" font-family="Pixel" font-weight="normal" text-anchor="start" style="mix-blend-mode: normal"><tspan x="0" dy="0">LEVEL 3</tspan></text><path d="M400.95195,132v-23h36v23z" fill="#00c517" stroke="#00c517" stroke-width="10.5" stroke-linecap="butt"/></g></g></svg>