<svg version="1.1" xmlns="http://www.w3.org/2000/svg" xmlns:xlink="http://www.w3.org/1999/xlink" width="501.25" height="412.25" viewBox="0,0,501.25,412.25"><g transform="translate(13.25,6.25)"><g data-paper-data="{&quot;isPaintingLayer&quot;:true}" fill-rule="nonzero" stroke-linejoin="miter" stroke-miterlimit="10" stroke-dasharray="" stroke-dashoffset="0" style="mix-blend-mode: normal"><path d="M393,358v-86.35294h95v86.35294z" fill="#00c517" stroke="none" stroke-width="0" stroke-linecap="butt"/><path d="M256,202v-6h27v6z" fill="#00c517" stroke="none" stroke-width="0" stroke-linecap="butt"/><path d="M105,359v-97h113v97z" fill="#00c517" stroke="none" stroke-width="0" stroke-linecap="butt"/><path d="M13,220v-11h56v11z" fill="#00c517" stroke="none" stroke-width="0" stroke-linecap="butt"/><path d="M78,168v-13h48v13z" fill="#00c517" stroke="none" stroke-width="0" stroke-linecap="butt"/><path d="M149,128v-12h36v12z" fill="#00c517" stroke="none" stroke-width="0" stroke-linecap="butt"/><path d="M226,100v-11h55.94703c0.16664,3.66671 0.33416,7.33338 0.5028,11z" fill="#00c517" stroke="none" stroke-width="0" stroke-linecap="butt"/><path d="M364,95v-18h76v18z" fill="#00c517" stroke="none" stroke-width="0" stroke-linecap="butt"/><path d="M59,40v-5h1c5.17438,0 9.87154,0.90899 15,1c0,0 3.54548,0 6.4142,-2.11112c1.3736,0.71008 2.93287,1.11112 4.5858,1.11112c0.99605,0 1.95808,-0.14563 2.86598,-0.41675c1.50075,0.89959 3.25699,1.41675 5.13402,1.41675c3.27164,0 6.17632,-1.57111 8.00073,-4h169.72962c0.51104,2.7778 1.03123,5.39299 1.50527,8z" fill="#00c517" stroke="none" stroke-width="0" stroke-linecap="butt"/><path d="M201,27v7h-100.99903c2.1778,-1.63622 3.66579,-4.141 3.94965,-7z" fill="#ff0000" stroke="none" stroke-width="0" stroke-linecap="butt"/><path d="M81.25986,34c0.05165,-0.03637 0.10311,-0.07341 0.15435,-0.11112c0.07337,0.03793 0.14726,0.07497 0.22167,0.11112z" fill="#ff0000" stroke="none" stroke-width="0" stroke-linecap="butt"/><path d="M218,365v-89h175v89z" fill="#ff0000" stroke="none" stroke-width="0" stroke-linecap="butt"/><path d="M-6,406v-126h112v126z" fill="#ff0000" stroke="none" stroke-width="0" stroke-linecap="butt"/><path d="M60,36l-73,1" fill="none" stroke="#00c517" stroke-width="0.5" stroke-linecap="round"/><path d="M-11,39v-2h70v2z" fill="#00c517" stroke="#00c517" stroke-width="3.5" stroke-linecap="butt"/><path d="M32.5,31c-8.00813,0 -14.5,-7.61116 -14.5,-17c0,-9.38884 6.49187,-17 14.5,-17c8.00813,0 14.5,7.61116 14.5,17c0,9.38884 -6.49187,17 -14.5,17z" fill="#006eff" stroke="none" stroke-width="0" stroke-linecap="butt"/><text transform="translate(219,156.86687) scale(1.39178,1.39178)" font-size="40" xml:space="preserve" fill="#00a0ff" fill-rule="nonzero" stroke="none" stroke-width="1" stroke-linecap="butt" stroke-linejoin="miter" stroke-miterlimit="10" stroke-dasharray="" stroke-dashoffset="0" font-family="Pixel" font-weight="normal" text-anchor="start" style="mix-blend-mode: normal"><tspan x="0" dy="0">LEVEL 9</tspan></text><text transform="translate(50,19) scale(0.47127,0.5)" font-size="40" xml:space="preserve" fill="#0096ff" fill-rule="nonzero" stroke="none" stroke-width="1" stroke-linecap="butt" stroke-linejoin="miter" stroke-miterlimit="10" stroke-dasharray="" stroke-dashoffset="0" font-family="Pixel" font-weight="normal" text-anchor="start" style="mix-blend-mode: normal"><tspan x="0" dy="0">THERE IS A GLITCH YOU HAVE TO USE HERE</tspan></text></g></g></svg>