<svg version="1.1" xmlns="http://www.w3.org/2000/svg" xmlns:xlink="http://www.w3.org/1999/xlink" width="584.47234" height="376.58566" viewBox="0,0,584.47234,376.58566"><g transform="translate(77.24253,29.11622)"><g data-paper-data="{&quot;isPaintingLayer&quot;:true}" fill-rule="nonzero" stroke-linejoin="miter" stroke-miterlimit="10" stroke-dasharray="" stroke-dashoffset="0" style="mix-blend-mode: normal"><path d="M486.23097,198.03631l-133.92214,-8.13546l-391.75354,-207.76706" fill="none" stroke="#00c517" stroke-width="22.5" stroke-linecap="round"/><path d="" fill="#ff0000" stroke="none" stroke-width="0.5" stroke-linecap="butt"/><path d="" fill="#ff0000" stroke="none" stroke-width="0.5" stroke-linecap="butt"/><path d="" fill="#ff0000" stroke="none" stroke-width="0.5" stroke-linecap="butt"/><path d="" fill="#ff0000" stroke="none" stroke-width="0.5" stroke-linecap="butt"/><path d="M260.31559,150.9864c2.71288,0 5.11992,1.30943 6.62358,3.33074c-1.77333,-1.97272 -4.32001,-3.23627 -7.16281,-3.3134c0.17826,-0.0115 0.35806,-0.01734 0.53922,-0.01734z" fill="#ff0000" stroke="none" stroke-width="0.5" stroke-linecap="butt"/><path d="" fill="#ff0000" stroke="none" stroke-width="0.5" stroke-linecap="butt"/><path d="M342.18143,204.92015c0,-4.55635 3.69365,-8.25 8.25,-8.25c4.55635,0 8.25,3.69365 8.25,8.25c0,4.55635 -3.69365,8.25 -8.25,8.25c-4.55635,0 -8.25,-3.69365 -8.25,-8.25z" fill="#ff0000" stroke="none" stroke-width="0.5" stroke-linecap="butt"/><path d="" fill="#ff0000" stroke="none" stroke-width="0.5" stroke-linecap="butt"/><path d="M-60.72349,184.60448l-5.26903,0.17032" fill="none" stroke="#00c517" stroke-width="22.5" stroke-linecap="round"/><path d="M495.97982,336.21945l-57.30998,-4.88682l-235.92825,-55.69659l-102.89437,-90.28336l-139.55597,-5.58432" fill="none" stroke="#00c517" stroke-width="22.5" stroke-linecap="round"/><path d="M471.48801,262.99156c0,31.05457 -10.3265,56.22927 -23.06489,56.22927c-12.73838,0 -23.06489,-25.1747 -23.06489,-56.22927c0,-31.05457 10.3265,-56.22927 23.06489,-56.22927c12.73838,0 23.06489,25.1747 23.06489,56.22927z" fill="#006eff" stroke="#000000" stroke-width="0.5" stroke-linecap="butt"/><path d="M128.51809,194.78766c0,-4.55635 3.69365,-8.25 8.25,-8.25c4.55635,0 8.25,3.69365 8.25,8.25c0,4.55635 -3.69365,8.25 -8.25,8.25c-4.55635,0 -8.25,-3.69365 -8.25,-8.25z" fill="#ff0000" stroke="none" stroke-width="0.5" stroke-linecap="butt"/><path d="M256.18217,269.88419c0,-4.55635 3.69365,-8.25 8.25,-8.25c4.55635,0 8.25,3.69365 8.25,8.25c0,4.55635 -3.69365,8.25 -8.25,8.25c-4.55635,0 -8.25,-3.69365 -8.25,-8.25z" fill="#ff0000" stroke="none" stroke-width="0.5" stroke-linecap="butt"/><path d="M412.00749,311.18728c0,-4.55635 3.69365,-8.25 8.25,-8.25c4.55635,0 8.25,3.69365 8.25,8.25c0,4.55635 -3.69365,8.25 -8.25,8.25c-4.55635,0 -8.25,-3.69365 -8.25,-8.25z" fill="#ff0000" stroke="none" stroke-width="0.5" stroke-linecap="butt"/><text transform="translate(190.12317,78.73989) scale(1.59345,1.59345)" font-size="40" xml:space="preserve" fill="#009fff" fill-rule="nonzero" stroke="none" stroke-width="1" stroke-linecap="butt" stroke-linejoin="miter" stroke-miterlimit="10" stroke-dasharray="" stroke-dashoffset="0" font-family="Pixel" font-weight="normal" text-anchor="start" style="mix-blend-mode: normal"><tspan x="0" dy="0">LEVEL 5</tspan></text></g></g></svg>