<svg version="1.1" xmlns="http://www.w3.org/2000/svg" xmlns:xlink="http://www.w3.org/1999/xlink" width="603.09036" height="309.35719" viewBox="0,0,603.09036,309.35719"><g transform="translate(106.28759,17.86058)"><g data-paper-data="{&quot;isPaintingLayer&quot;:true}" fill-rule="nonzero" stroke-linejoin="miter" stroke-miterlimit="10" stroke-dasharray="" stroke-dashoffset="0" style="mix-blend-mode: normal"><path d="M469.66023,285.36177l-461.00923,0.88485" fill="none" stroke="#00c517" stroke-width="10.5" stroke-linecap="round"/><path d="M398.55735,280.62528l2.92598,2.40081" fill="none" stroke="#00c517" stroke-width="10.5" stroke-linecap="round"/><path d="M360.06923,249.04529l-300.2751,-246.37957" fill="none" stroke="#00c517" stroke-width="10.5" stroke-linecap="round"/><path d="M151.78738,279.89707l-252.82497,-244.68951" fill="none" stroke="#00c517" stroke-width="10.5" stroke-linecap="round"/><path d="M-24.5044,156.49614c-21.79481,28.07067 -48.79727,43.57907 -60.31168,34.63898c-11.51441,-8.94009 -3.1805,-38.94325 18.61431,-67.01392c21.79481,-28.07067 77.30053,-62.10619 88.81494,-53.1661c11.51441,8.94009 -25.32275,57.47037 -47.11756,85.54104z" fill="#006eff" stroke="#000000" stroke-width="0.5" stroke-linecap="butt"/><path d="M141.67888,265.07428c1.94237,-4.69173 7.60528,-4.69173 7.60528,-4.69173c4.60152,0.97247 10.56753,-0.49453 13.80457,2.91741c4.27223,4.50306 1.53052,12.85297 -2.19813,16.54064c-3.03607,3.0027 -5.5023,8.14169 -9.76999,8.28568c-4.46458,0.15064 -8.33556,-4.03502 -11.04949,-7.58322c-3.38008,-4.41912 -1.52367,-11.12671 1.60777,-15.46878z" fill="#ff0000" stroke="none" stroke-width="0.5" stroke-linecap="butt"/><path d="M292.25648,197.9109c1.8209,-0.73455 3.46591,-0.73455 3.46591,-0.73455l8.62948,6.24908c0.36001,1.44004 1.51345,5.89163 1.4956,6.81109c-0.16547,8.52099 -7.10918,22.0852 -17.39113,21.52634c-3.07473,-0.16712 -5.40013,-3.07894 -7.64251,-5.1893c-8.71888,-8.20556 -3.38397,-19.2225 3.4427,-26.35504c0,0 3.61538,-3.61538 7.99996,-2.30762z" fill="#ff0000" stroke="none" stroke-width="0.5" stroke-linecap="butt"/><path d="M195.98648,110.25529c5.42369,1.15809 10.80081,6.19888 12.39857,10.45988c1.15026,3.06757 0.58984,11.36056 -1.29167,14.40956c-0.24875,0.4031 -0.53458,0.77569 -0.84653,1.12692c-2.14593,-3.25655 -5.83566,-5.40574 -10.02736,-5.40574c-3.62571,0 -6.87585,1.60798 -9.07621,4.14971c-2.10037,-1.80633 -4.83294,-2.8981 -7.82051,-2.8981c-3.13921,0 -5.99688,1.20541 -8.1354,3.17862c-0.31758,-0.99633 -0.55942,-2.02685 -0.71767,-3.08269c-0.54854,-3.65961 1.9321,-7.20721 3.65284,-10.48329c3.26003,-6.2067 6.35923,-7.80085 11.51472,-11.74804c0,0 5.59777,-4.19832 10.34923,0.29316z" fill="#ff0000" stroke="none" stroke-width="0.5" stroke-linecap="butt"/><path d="M30.07045,164.09212c-0.0757,-0.01705 -0.15143,-0.03398 -0.22718,-0.05078c0,0 -7.82538,-1.73897 -6.33451,-9.50233c-0.08173,-0.51814 -0.12582,-1.07714 -0.12582,-1.68023c0,-8.25 8.25,-8.25 8.25,-8.25l6.45944,2.41637c0.79886,0.80916 1.53833,1.61154 2.22715,2.42256c5.80951,1.40587 9.98269,3.26667 15.92118,10.09352c2.43213,2.79596 5.36938,6.33194 4.8539,10.00167c-1.15178,8.1996 -13.64108,11.77955 -20.18026,9.29083c-7.28295,-2.77179 -8.21416,-9.10359 -10.8439,-14.74162z" fill="#ff0000" stroke="none" stroke-width="0.5" stroke-linecap="butt"/><text transform="translate(177.96271,56.32208) rotate(38.90377) scale(1.84345,1.84345)" font-size="40" xml:space="preserve" fill="#009fff" fill-rule="nonzero" stroke="none" stroke-width="1" stroke-linecap="butt" stroke-linejoin="miter" stroke-miterlimit="10" stroke-dasharray="" stroke-dashoffset="0" font-family="Pixel" font-weight="normal" text-anchor="start" style="mix-blend-mode: normal"><tspan x="0" dy="0">LEVEL 6</tspan></text></g></g></svg>