<svg version="1.1" xmlns="http://www.w3.org/2000/svg" xmlns:xlink="http://www.w3.org/1999/xlink" width="551.95055" height="347.87284" viewBox="0,0,551.95055,347.87284"><g transform="translate(47.89683,-33.43464)"><g data-paper-data="{&quot;isPaintingLayer&quot;:true}" fill-rule="nonzero" stroke-linejoin="miter" stroke-miterlimit="10" stroke-dasharray="" stroke-dashoffset="0" style="mix-blend-mode: normal"><path d="M354.00891,367.91062v-33.49214h150.04481v33.49214z" fill="#00c517" stroke="none" stroke-width="0" stroke-linecap="butt"/><path d="M-47.89683,381.30748v-30.81277h403.24543v30.81277z" fill="#ff0000" stroke="none" stroke-width="0" stroke-linecap="butt"/><path d="M217.36096,294.2279v-12.05717h30.81278v12.05717z" fill="#00c517" stroke="none" stroke-width="0" stroke-linecap="butt"/><path d="M80.71301,245.99922v-13.39686h49.56838v13.39686z" fill="#00c517" stroke="none" stroke-width="0" stroke-linecap="butt"/><path d="M3.01123,203.12927v-16.07623h38.85089v16.07623z" fill="#00c517" stroke="none" stroke-width="0" stroke-linecap="butt"/><path d="M80.713,245.99922h-41.53026v-45.54932" fill="none" stroke="#ff0000" stroke-width="5" stroke-linecap="round"/><path d="M220.04033,296.90728h-91.09863v-52.24775" fill="none" stroke="#ff0000" stroke-width="5" stroke-linecap="round"/><path d="M359.36766,334.41849l-109.85424,-1.33969l-1.33969,-42.86995" fill="none" stroke="#ff0000" stroke-width="5" stroke-linecap="round"/><path d="M-13.065,370.58999v-172.81947h52.24775v172.81947z" fill="#ff0000" stroke="none" stroke-width="0" stroke-linecap="butt"/><path d="M32.48432,358.53282v-116.55266h96.45738v116.55266z" fill="#ff0000" stroke="none" stroke-width="0" stroke-linecap="butt"/><path d="M213.3419,367.91062v-79.04146h33.49214v79.04146z" fill="#ff0000" stroke="none" stroke-width="0" stroke-linecap="butt"/><path d="M120.90358,351.83439v-57.60649h95.11769v57.60649z" fill="#ff0000" stroke="none" stroke-width="0" stroke-linecap="butt"/><path d="M241.4753,357.19314v-22.77466h120.57172v22.77466z" fill="#ff0000" stroke="none" stroke-width="0" stroke-linecap="butt"/><path d="M230.95624,326.38036v-2.67937c0.05796,-1.39092 -0.15752,-2.82066 0.17388,-4.17277c0.4385,-1.78907 1.05357,-3.06886 1.8476,-4.08719c0.02055,-0.04113 0.04152,-0.08201 0.06291,-0.12263l1.21823,-2.43646c0.4186,-0.88303 1.03035,-1.65666 1.7807,-2.26634c0.88111,-1.45897 2.49171,-2.7924 5.43574,-2.7924c6.5,0 6.5,6.5 6.5,6.5c0,3.60569 0,7.21138 0,10.81707c1.62384,1.18171 2.67937,3.09717 2.67937,5.25916c0,0.63286 -0.09044,1.24459 -0.25911,1.82298c2.11677,3.93944 3.77237,10.21304 -1.48395,13.08405c-7.51891,4.10685 -12.16314,-3.14634 -13.76243,-8.05489c-0.01222,-0.03752 -0.02361,-0.08952 -0.03423,-0.15444c-1.70272,-1.17201 -2.81903,-3.13465 -2.81903,-5.35801v-1.23417c-1.33969,-1.85659 -1.33969,-4.12458 -1.33969,-4.12458z" fill="#ff0000" stroke="none" stroke-width="0.5" stroke-linecap="butt"/><text transform="translate(260.05575,315.95899) scale(1.18412,1.31676)" font-size="40" xml:space="preserve" fill="#009fff" fill-rule="nonzero" stroke="none" stroke-width="1" stroke-linecap="butt" stroke-linejoin="miter" stroke-miterlimit="10" stroke-dasharray="" stroke-dashoffset="0" font-family="Pixel" font-weight="normal" text-anchor="start" style="mix-blend-mode: normal"><tspan x="0" dy="0">LEVEL 11</tspan></text><path d="M468.24697,124.57228l-116.57303,2.80899v54.77528h-164.32584l-1.40449,-47.75281h-103.93258" fill="none" stroke="#00c517" stroke-width="15" stroke-linecap="round"/><path d="M314.77508,148.38689c0,7.36897 -22.32288,13.34269 -49.85955,13.34269c-27.53667,0 -49.85956,-5.97373 -49.85956,-13.34269c0,-7.36897 22.32288,-13.34269 49.85956,-13.34269c27.53667,0 49.85955,5.97373 49.85955,13.34269z" fill="#006eff" stroke="none" stroke-width="0" stroke-linecap="butt"/><path d="M192.37059,176.94306v-39.32584h153.08989v39.32584z" fill="#fc1313" stroke="#006eff" stroke-width="2" stroke-linecap="butt"/><path d="M461.22451,75.41498c0,22.49474 -11.63305,40.73034 -25.98315,40.73034c-14.3501,0 -25.98315,-18.23559 -25.98315,-40.73034c0,-22.49474 11.63305,-40.73034 25.98315,-40.73034c14.3501,0 25.98315,18.23559 25.98315,40.73034z" fill="#006eff" stroke="#ff0000" stroke-width="2.5" stroke-linecap="butt"/><path d="" fill="#fc2020" stroke="none" stroke-width="0.5" stroke-linecap="butt"/><path d="" fill="#fc2020" stroke="none" stroke-width="0.5" stroke-linecap="butt"/><path d="M227.45196,162c0,-1.38071 1.11929,-2.5 2.5,-2.5c1.38071,0 2.5,1.11929 2.5,2.5c0,1.38071 -1.11929,2.5 -2.5,2.5c-1.38071,0 -2.5,-1.11929 -2.5,-2.5z" fill="#fc2020" stroke="none" stroke-width="0.5" stroke-linecap="butt"/></g></g></svg>