<svg version="1.1" xmlns="http://www.w3.org/2000/svg" xmlns:xlink="http://www.w3.org/1999/xlink" width="127.71475" height="46.99683" viewBox="0,0,127.71475,46.99683"><g transform="translate(-117.4078,-233.40746)"><g data-paper-data="{&quot;isPaintingLayer&quot;:true}" fill-rule="nonzero" stroke-linecap="butt" stroke-linejoin="miter" stroke-miterlimit="10" stroke-dasharray="" stroke-dashoffset="0" style="mix-blend-mode: normal"><path d="M241.76144,275.33466h-8.64176v-8.00477h8.64176z" fill="#ffffff" stroke="#14181c" stroke-width="6.5"/><path d="M188.96295,262.97456h-12.4989v-8.00477h12.4989z" fill="#ffffff" stroke="#14181c" stroke-width="7"/><g fill="#ffffff" stroke-width="7"><path d="M125.66113,263.02444v-11.75148h17.6781v11.75148z" stroke="#101010"/><path d="M154.65409,276.73753v-39.65575h9.58601v39.65575z" stroke="#101010"/><path d="M191.38564,276.74057h-24.30948v-9.43343h24.30948z" stroke="#101010"/><path d="M167.01506,276.68045v-39.65575h9.58601v39.65575z" stroke="#14181c"/><path d="M120.9078,276.68044v-39.65575h9.58601v39.65575z" stroke="#14181c"/><path d="M141.54808,276.62334v-39.65575h9.58601v39.65575z" stroke="#14181c"/><path d="M191.47037,246.3409h-24.30948v-9.43343h24.30948z" stroke="#14181c"/><path d="M181.94547,276.76383v-18.72499h9.58601v18.72499z" stroke="#14181c"/><path d="M199.11778,263.2483v-11.75148h17.6781v11.75148z" stroke="#101010"/><path d="M194.36445,276.9043v-39.65575h9.58601v39.65575z" stroke="#14181c"/><path d="M215.00474,276.8472v-39.65575h9.58601v39.65575z" stroke="#14181c"/></g><path d="M122.95183,261.49467v-11.75148h17.67809v11.75148z" fill="#ffffff" stroke="none" stroke-width="0"/><path d="M151.65909,275.20777v-39.65575h9.58601v39.65575z" fill="#ffffff" stroke="none" stroke-width="0"/><path d="M189.53349,275.21081h-24.30948v-8.76677h24.30948z" fill="#ffffff" stroke="none" stroke-width="0"/><path d="M165.1629,275.15067v-39.65575h9.09187v39.65575z" fill="#ffffff" stroke="none" stroke-width="0"/><path d="M118.19851,275.15067v-39.65575h9.58601v39.65575z" fill="#ffffff" stroke="none" stroke-width="0"/><path d="M138.83879,275.09358v-39.65575h9.58601v39.65575z" fill="#ffffff" stroke="none" stroke-width="0"/><path d="M189.47537,244.81113h-24.30948v-9.43343h24.30948z" fill="#ffffff" stroke="none" stroke-width="0"/><path d="M182.56288,275.23406v-18.72499h7.11644v18.72499z" fill="#ffffff" stroke="none" stroke-width="0"/><path d="M196.40849,261.71853v-11.75148h17.6781v11.75148z" fill="#ffffff" stroke="none" stroke-width="0"/><path d="M191.65516,275.37453v-39.65575h9.58601v39.65575z" fill="#ffffff" stroke="none" stroke-width="0"/><path d="M212.29545,275.61391v-39.65575h9.58601v39.65575z" fill="#ffffff" stroke="none" stroke-width="0"/><path d="M189.61859,260.66801h-12.4989v-7.33811h12.4989z" fill="#ffffff" stroke="none" stroke-width="0"/><path d="M240.09477,274.33466h-8.64176v-8.00477h8.64176z" fill="#ffffff" stroke="none" stroke-width="0"/><path d="M241.87255,247.668h-8.64176v-8.00477h8.64176z" fill="#ffffff" stroke="#14181c" stroke-width="6.5"/><path d="M240.20589,246.55689h-8.64176v-8.00477h8.64176z" fill="#ffffff" stroke="none" stroke-width="0"/><path d="M138.33889,279.42014v-4h68.68571v4z" fill="#14181c" stroke="none" stroke-width="7"/></g></g></svg>