<svg xmlns="http://www.w3.org/2000/svg" xmlns:xlink="http://www.w3.org/1999/xlink" version="1.1" width="92.0009994506836" height="55.6719970703125" viewBox="-0.3310000002384186 54.31999969482422 92.0009994506836 55.6719970703125">
  <defs>
    <linearGradient id="grad_1" x1="27.1699" y1="75.8438" x2="118.1699" y2="75.8438" gradientUnits="userSpaceOnUse">
      <stop offset="0.012" stop-color="#A7A9AC"/>
      <stop offset="1" stop-color="#414042"/>
    </linearGradient>
    <linearGradient id="grad_2" x1="30.583" y1="75.8447" x2="114.7559" y2="75.8447" gradientUnits="userSpaceOnUse">
      <stop offset="0" stop-color="#D1D2D3"/>
      <stop offset="1" stop-color="#A4A5A8"/>
    </linearGradient>
  <linearGradient id="grad_1-,0,0,1,-27,14" x1="0.1699" y1="89.8438" x2="91.1699" y2="89.8438" gradientUnits="userSpaceOnUse">
      <stop offset="0.012" stop-color="#A7A9AC"/>
      <stop offset="1" stop-color="#414042"/>
    </linearGradient><linearGradient id="grad_2-,0,0,1,-27,14" x1="3.583" y1="89.8447" x2="87.7559" y2="89.8447" gradientUnits="userSpaceOnUse">
      <stop offset="0" stop-color="#D1D2D3"/>
      <stop offset="1" stop-color="#A4A5A8"/>
    </linearGradient></defs>
  <!-- Exported by Scratch - http://scratch.mit.edu/ -->
  <g id="ID0.09001714503392577">
    <path id="ID0.9971073726192117" fill="url(#grad_1-,0,0,1,-27,14)" d="M 91.17 100.887 C 91.17 105.639 87.316 109.492 82.565 109.492 L 8.773 109.492 C 4.021 109.492 0.169 105.638 0.169 100.887 L 0.169 63.424 C 0.169 58.672 4.021 54.82 8.773 54.82 L 82.564 54.82 C 87.318 54.82 91.169 58.672 91.169 63.424 L 91.169 100.887 L 91.17 100.887 Z " stroke-width="1"/>
    <path id="ID0.16924459813162684" fill="url(#grad_2-,0,0,1,-27,14)" d="M 82.564 58.233 L 8.773 58.233 C 5.912 58.233 3.583 60.561 3.583 63.423 L 3.583 100.886 C 3.583 103.748 5.912 106.076 8.773 106.076 L 82.564 106.076 C 85.428 106.076 87.755 103.748 87.755 100.886 L 87.755 63.424 C 87.755 60.562 85.428 58.233 82.564 58.233 Z " stroke-width="1"/>
  </g>
  <text id="ID0.7917809183709323" fill="#000000" text-anchor="start" font-family="Sans Serif" font-size="22" transform="matrix(0.865052 0 0 0.865052 5.3801 68.2048)" stroke-width="1" alignment-baseline="text-before-edge" xml:space="preserve"><tspan x="0" style="white-space: pre" dy="1.13em">Settings</tspan></text>
</svg>